<svg xmlns="http://www.w3.org/2000/svg" xmlns:xlink="http://www.w3.org/1999/xlink" width="1080" zoomAndPan="magnify" viewBox="0 0 810 809.999993" height="1080" preserveAspectRatio="xMidYMid meet" version="1.0"><defs><clipPath id="14c3a996ba"><path d="M 284 288.121094 L 526 288.121094 L 526 522 L 284 522 Z M 284 288.121094 " clip-rule="nonzero"/></clipPath></defs><path fill="#ffe533" d="M 539.039062 400.488281 L 536.140625 397.59375 L 518.175781 415.546875 C 518.175781 415.546875 518.175781 416.128906 517.59375 416.128906 C 517.59375 417.285156 517.59375 417.867188 517.59375 419.023438 L 515.855469 430.027344 L 523.390625 472.890625 L 563.960938 452.039062 C 566.855469 450.300781 571.492188 450.300781 574.390625 452.039062 L 625.972656 478.683594 C 628.871094 480.421875 630.609375 478.683594 630.03125 475.785156 L 620.175781 419.023438 C 619.597656 415.546875 621.335938 411.496094 623.65625 409.175781 L 665.960938 368.632812 C 668.28125 366.316406 667.703125 364 664.222656 364 L 605.6875 355.3125 C 602.789062 354.730469 598.734375 352.414062 597.574219 348.941406 L 572.074219 297.390625 C 570.335938 294.496094 568.015625 294.496094 566.855469 297.390625 L 541.355469 348.941406 C 540.777344 350.675781 539.039062 351.835938 537.878906 352.996094 L 563.960938 357.046875 L 567.4375 350.097656 C 569.175781 347.203125 571.492188 347.203125 572.652344 350.097656 L 583.085938 370.949219 C 584.824219 373.847656 588.300781 376.742188 591.199219 377.320312 L 613.800781 380.796875 C 616.699219 381.375 617.859375 383.691406 615.539062 385.429688 L 599.3125 401.070312 C 596.996094 403.386719 595.835938 408.019531 595.835938 410.914062 L 599.890625 433.503906 C 600.472656 436.980469 598.734375 438.136719 595.835938 436.398438 L 574.972656 425.394531 C 572.074219 423.65625 567.4375 423.65625 564.539062 425.394531 L 543.675781 436.398438 C 540.777344 438.136719 539.039062 436.398438 539.617188 433.503906 L 543.675781 410.914062 C 542.515625 407.441406 541.355469 402.804688 539.039062 400.488281 Z M 539.039062 400.488281 " fill-opacity="1" fill-rule="nonzero"/><path fill="#ffe533" d="M 683.929688 383.113281 L 669.441406 397.59375 C 667.121094 399.910156 665.960938 403.964844 665.960938 407.441406 L 671.179688 439.296875 L 696.101562 426.554688 C 698.996094 424.816406 703.632812 424.816406 706.53125 426.554688 L 743.625 446.246094 C 746.523438 447.984375 748.261719 446.246094 747.679688 443.351562 L 740.726562 402.226562 C 740.148438 398.75 741.886719 394.695312 744.203125 392.378906 L 774.921875 362.839844 C 777.238281 360.523438 776.660156 358.207031 773.183594 358.207031 L 730.875 351.835938 C 727.976562 351.257812 723.917969 348.359375 722.757812 345.464844 L 704.214844 308.394531 C 702.476562 305.5 700.15625 305.5 698.996094 308.394531 L 680.453125 345.464844 C 679.871094 346.621094 679.292969 347.203125 678.714844 347.78125 L 710.007812 352.414062 C 712.90625 352.996094 714.066406 355.3125 711.75 357.046875 L 705.953125 362.839844 L 707.691406 366.894531 C 709.429688 369.792969 712.90625 372.6875 715.804688 373.265625 L 722.757812 374.425781 C 725.65625 373.847656 726.238281 376.164062 723.917969 378.480469 L 719.28125 383.113281 C 716.964844 385.429688 715.804688 389.484375 715.804688 392.960938 L 716.964844 399.332031 C 717.542969 402.804688 715.804688 403.964844 712.90625 402.226562 L 706.53125 399.332031 C 703.632812 397.59375 698.996094 397.59375 696.101562 399.332031 L 689.726562 402.804688 C 686.828125 404.542969 685.089844 402.804688 685.667969 399.910156 L 686.828125 392.960938 C 687.40625 389.484375 685.667969 385.429688 683.929688 383.113281 Z M 683.929688 383.113281 " fill-opacity="1" fill-rule="nonzero"/><path fill="#ffe533" d="M 187.824219 409.175781 C 190.140625 411.496094 191.300781 416.128906 191.300781 419.023438 L 181.449219 475.785156 C 180.867188 479.261719 182.605469 480.421875 185.503906 478.683594 L 237.085938 452.039062 C 239.984375 450.300781 244.621094 450.300781 247.519531 452.039062 L 288.085938 472.890625 L 295.042969 430.027344 L 293.304688 419.023438 C 293.304688 417.867188 293.304688 417.285156 293.304688 416.128906 C 293.304688 416.128906 293.304688 415.546875 292.722656 415.546875 L 274.757812 397.59375 L 271.859375 400.488281 C 269.542969 402.804688 268.382812 407.441406 268.382812 410.335938 L 272.4375 432.925781 C 273.019531 436.398438 271.28125 437.558594 268.382812 435.820312 L 247.519531 424.816406 C 244.621094 423.078125 239.984375 423.078125 237.085938 424.816406 L 216.222656 435.820312 C 213.324219 437.558594 211.585938 435.820312 212.164062 432.925781 L 216.222656 410.335938 C 216.800781 406.859375 215.0625 402.804688 212.746094 400.488281 L 196.515625 384.851562 C 194.199219 382.535156 194.777344 380.21875 198.253906 380.21875 L 220.859375 376.742188 C 223.757812 376.164062 227.8125 373.265625 228.972656 370.371094 L 239.402344 349.519531 C 241.144531 346.621094 243.460938 346.621094 244.621094 349.519531 L 248.097656 356.46875 L 274.179688 352.996094 C 272.4375 351.835938 271.28125 350.675781 270.699219 348.941406 L 245.199219 297.390625 C 243.460938 294.496094 241.144531 294.496094 239.984375 297.390625 L 214.484375 348.941406 C 212.742188 351.835938 209.265625 354.730469 206.367188 355.3125 L 147.832031 364 C 144.933594 364.578125 143.777344 366.894531 146.09375 368.632812 Z M 187.824219 409.175781 " fill-opacity="1" fill-rule="nonzero"/><path fill="#ffe533" d="M 35.398438 361.683594 L 66.113281 391.222656 C 68.433594 393.539062 69.59375 398.171875 69.59375 401.070312 L 62.636719 442.191406 C 62.058594 445.667969 63.796875 446.824219 66.695312 445.089844 L 103.785156 425.394531 C 106.683594 423.65625 111.320312 423.65625 114.21875 425.394531 L 139.140625 438.136719 L 144.355469 406.28125 C 144.933594 402.804688 143.195312 398.75 140.878906 396.433594 L 126.390625 381.953125 C 124.070312 384.269531 122.910156 388.324219 123.492188 391.800781 L 124.652344 398.75 C 125.230469 402.226562 123.492188 403.386719 120.59375 401.648438 L 114.21875 398.171875 C 111.320312 396.433594 106.683594 396.433594 103.785156 398.171875 L 97.410156 401.648438 C 94.511719 403.386719 92.773438 401.648438 93.355469 398.75 L 94.511719 391.800781 C 95.09375 388.324219 93.355469 384.269531 91.035156 381.953125 L 86.398438 377.320312 C 84.082031 375.003906 84.660156 372.6875 88.136719 372.6875 L 95.09375 371.527344 C 97.992188 370.949219 102.046875 368.054688 103.207031 365.15625 L 104.945312 361.101562 L 99.148438 355.3125 C 96.832031 352.996094 97.410156 350.675781 100.886719 350.675781 L 132.183594 346.042969 C 131.605469 345.464844 130.445312 344.304688 130.445312 343.726562 L 111.898438 306.65625 C 110.160156 303.761719 107.84375 303.761719 106.683594 306.65625 L 88.136719 343.726562 C 86.398438 346.621094 82.921875 349.519531 80.023438 350.097656 L 37.714844 356.46875 C 34.238281 357.628906 33.078125 359.367188 35.398438 361.683594 Z M 35.398438 361.683594 " fill-opacity="1" fill-rule="nonzero"/><g clip-path="url(#14c3a996ba)"><path fill="#ffe533" d="M 339.089844 433.503906 C 341.40625 435.820312 342.566406 440.453125 341.988281 443.351562 L 329.816406 517.488281 C 329.238281 520.964844 330.976562 522.121094 333.871094 520.386719 L 399.941406 485.632812 C 402.839844 483.894531 407.476562 483.894531 410.375 485.632812 L 476.445312 520.386719 C 479.34375 522.121094 481.082031 520.386719 480.503906 517.488281 L 467.75 443.351562 C 467.171875 439.875 468.910156 435.820312 470.648438 433.503906 L 523.96875 380.796875 C 526.289062 378.480469 525.707031 376.164062 522.230469 375.582031 L 448.046875 364.578125 C 445.148438 364 441.09375 361.101562 439.933594 358.207031 L 406.898438 291.019531 C 405.738281 288.121094 403.421875 288.121094 401.683594 291.019531 L 369.804688 358.785156 C 368.648438 361.683594 364.589844 364.578125 361.691406 365.15625 L 287.507812 376.164062 C 284.609375 376.742188 283.449219 379.058594 285.769531 381.375 Z M 339.089844 433.503906 " fill-opacity="1" fill-rule="nonzero"/></g></svg>