<svg xmlns="http://www.w3.org/2000/svg" xmlns:xlink="http://www.w3.org/1999/xlink" width="500" zoomAndPan="magnify" viewBox="0 0 375 374.999991" height="500" preserveAspectRatio="xMidYMid meet" version="1.0"><defs><g/><clipPath id="8f437f2bca"><path d="M 64.523438 0 L 291.675781 0 L 291.675781 206.898438 L 64.523438 206.898438 Z M 64.523438 0 " clip-rule="nonzero"/></clipPath></defs><g clip-path="url(#8f437f2bca)"><path fill="#3c3c3d" d="M 177.011719 108.300781 C 173.566406 108.300781 170.777344 105.523438 170.777344 102.09375 C 170.777344 98.667969 173.566406 95.886719 177.011719 95.886719 C 180.453125 95.886719 183.242188 98.667969 183.242188 102.09375 C 183.242188 105.523438 180.453125 108.300781 177.011719 108.300781 Z M 263.300781 29.410156 C 263.292969 29.40625 263.28125 29.398438 263.269531 29.390625 C 263.261719 33.382812 263.851562 37.605469 265.050781 42.050781 C 275.910156 51.109375 282.441406 62.660156 282.441406 75.164062 C 282.441406 89.359375 274.019531 102.332031 260.398438 111.820312 C 253.703125 116.484375 245.773438 120.300781 236.964844 123.027344 C 234.246094 109.179688 225.136719 96.855469 211.804688 87.566406 C 196.210938 76.703125 174.765625 69.984375 151.167969 69.984375 C 143.054688 69.984375 135.195312 70.777344 127.738281 72.261719 C 128.800781 59.203125 136.976562 47.34375 149.660156 38.503906 C 163.757812 28.683594 183.328125 22.613281 205.03125 22.613281 C 211.484375 22.613281 217.75 23.148438 223.738281 24.160156 C 224.101562 23.898438 224.472656 23.636719 224.839844 23.382812 C 228.210938 21.042969 231.710938 19.011719 235.335938 17.285156 C 235.503906 17.207031 235.671875 17.125 235.84375 17.046875 C 236.765625 16.601562 237.722656 16.179688 238.71875 15.78125 C 248.066406 11.894531 258.234375 9.957031 269.214844 9.964844 C 265.652344 15.140625 263.695312 20.914062 263.332031 27.289062 C 263.300781 27.992188 263.292969 28.699219 263.300781 29.410156 Z M 92.894531 177.484375 C 92.90625 177.492188 92.917969 177.5 92.929688 177.507812 C 92.9375 173.511719 92.34375 169.292969 91.148438 164.847656 C 80.289062 155.789062 73.757812 144.238281 73.757812 131.734375 C 73.757812 117.535156 82.179688 104.566406 95.796875 95.078125 C 102.496094 90.414062 110.425781 86.59375 119.234375 83.871094 C 121.949219 97.71875 131.0625 110.042969 144.394531 119.332031 C 159.988281 130.195312 181.429688 136.914062 205.03125 136.914062 C 213.144531 136.914062 221.003906 136.117188 228.457031 134.636719 C 227.398438 147.695312 219.222656 159.554688 206.539062 168.390625 C 192.441406 178.210938 172.871094 184.285156 151.167969 184.285156 C 144.714844 184.285156 138.449219 183.75 132.460938 182.734375 C 132.09375 183 131.726562 183.257812 131.355469 183.515625 C 127.988281 185.855469 124.488281 187.886719 120.863281 189.613281 C 120.695312 189.691406 120.523438 189.773438 120.355469 189.851562 C 119.433594 190.296875 118.476562 190.71875 117.480469 191.117188 C 108.128906 195.003906 97.964844 196.941406 86.984375 196.933594 C 90.542969 191.757812 92.503906 185.984375 92.867188 179.605469 C 92.894531 178.90625 92.90625 178.199219 92.894531 177.484375 Z M 157.691406 95.886719 C 161.132812 95.886719 163.921875 98.664062 163.921875 102.09375 C 163.921875 105.523438 161.132812 108.300781 157.691406 108.300781 C 154.25 108.300781 151.460938 105.523438 151.460938 102.09375 C 151.460938 98.664062 154.25 95.886719 157.691406 95.886719 Z M 196.328125 108.300781 C 192.886719 108.300781 190.097656 105.523438 190.097656 102.09375 C 190.097656 98.664062 192.886719 95.886719 196.328125 95.886719 C 199.769531 95.886719 202.558594 98.664062 202.558594 102.09375 C 202.558594 105.523438 199.769531 108.300781 196.328125 108.300781 Z M 133.617188 192.214844 C 139.289062 193.046875 145.160156 193.480469 151.171875 193.480469 C 174.769531 193.480469 196.210938 186.761719 211.804688 175.898438 C 227.683594 164.835938 237.574219 149.464844 237.808594 132.351562 C 248.285156 129.308594 257.734375 124.855469 265.671875 119.328125 C 281.742188 108.128906 291.679688 92.523438 291.679688 75.160156 C 291.679688 60.828125 284.910156 47.699219 273.511719 37.253906 C 273.5 37.183594 273.488281 37.109375 273.472656 37.039062 C 272.226562 31.242188 272.128906 25.960938 273.675781 21.242188 C 275.203125 16.597656 278.402344 12.308594 283.785156 8.371094 C 285.835938 6.875 286.28125 4.003906 284.777344 1.957031 C 283.789062 0.617188 282.207031 -0.0351562 280.65625 0.0976562 C 266.347656 0.71875 254.820312 1.882812 245.390625 4.128906 C 235.886719 6.390625 228.496094 9.738281 222.585938 14.671875 C 216.914062 13.84375 211.046875 13.40625 205.035156 13.40625 C 181.4375 13.40625 159.992188 20.125 144.398438 30.992188 C 128.523438 42.054688 118.628906 57.425781 118.394531 74.539062 C 107.917969 77.582031 98.46875 82.035156 90.535156 87.5625 C 74.464844 98.757812 64.527344 114.363281 64.527344 131.730469 C 64.527344 146.058594 71.296875 159.191406 82.691406 169.636719 C 82.703125 169.707031 82.71875 169.777344 82.730469 169.847656 C 83.980469 175.648438 84.078125 180.925781 82.527344 185.644531 C 81.003906 190.292969 77.800781 194.578125 72.421875 198.515625 C 70.371094 200.015625 69.925781 202.886719 71.429688 204.929688 C 72.417969 206.273438 74 206.925781 75.550781 206.789062 C 89.859375 206.171875 101.382812 205.003906 110.816406 202.757812 C 120.316406 200.496094 127.710938 197.148438 133.617188 192.214844 Z M 133.617188 192.214844 " fill-opacity="1" fill-rule="evenodd"/></g><g fill="#3c3c3d" fill-opacity="1"><g transform="translate(78.103587, 297.620057)"><g><path d="M 49.925781 -43.871094 C 49.925781 -53.21875 44.585938 -62.738281 27.855469 -62.738281 L 12.371094 -62.738281 C 8.722656 -62.738281 5.605469 -59.800781 5.605469 -56.332031 L 5.605469 -5.074219 C 5.605469 -1.867188 8.453125 0.800781 11.746094 0.800781 C 15.128906 0.800781 18.066406 -1.957031 18.066406 -5.074219 L 18.066406 -25.453125 L 24.117188 -25.453125 L 39.066406 -2.046875 C 40.222656 -0.265625 42.09375 0.710938 44.316406 0.710938 C 48.324219 0.710938 52.683594 -4.003906 49.746094 -8.453125 L 37.554688 -26.785156 C 45.207031 -29.277344 49.925781 -35.0625 49.925781 -43.871094 Z M 37.464844 -43.871094 C 37.464844 -39.246094 34.171875 -36.664062 28.03125 -36.664062 L 18.066406 -36.664062 L 18.066406 -51.4375 L 27.5 -51.4375 C 35.597656 -51.4375 37.464844 -47.609375 37.464844 -43.871094 Z M 37.464844 -43.871094 "/></g></g></g><g fill="#3c3c3d" fill-opacity="1"><g transform="translate(132.827283, 297.620057)"><g><path d="M 5.605469 -4.894531 C 5.605469 -1.867188 8.363281 0.800781 11.835938 0.800781 C 15.21875 0.800781 18.066406 -1.867188 18.066406 -4.894531 L 18.066406 -57.84375 C 18.066406 -60.871094 15.21875 -63.539062 11.835938 -63.539062 C 8.363281 -63.539062 5.605469 -60.871094 5.605469 -57.84375 Z M 5.605469 -4.894531 "/></g></g></g><g fill="#3c3c3d" fill-opacity="1"><g transform="translate(156.585371, 297.620057)"><g><path d="M 36.488281 -26.699219 C 36.488281 -29.632812 33.90625 -32.125 30.613281 -32.125 L 8.453125 -32.125 C 5.074219 -32.125 2.492188 -29.632812 2.492188 -26.699219 C 2.492188 -23.582031 5.074219 -21.269531 8.453125 -21.269531 L 30.613281 -21.269531 C 33.90625 -21.269531 36.488281 -23.582031 36.488281 -26.699219 Z M 36.488281 -26.699219 "/></g></g></g><g fill="#3c3c3d" fill-opacity="1"><g transform="translate(195.648296, 297.620057)"><g><path d="M 36.753906 15.394531 C 42.359375 15.394531 46.632812 15.21875 46.632812 9.96875 C 46.632812 6.585938 44.140625 4.539062 40.492188 4.539062 L 37.910156 4.539062 C 35.953125 4.539062 34.707031 3.203125 33.996094 0 C 44.851562 -2.582031 50.28125 -11.746094 50.28125 -22.605469 L 50.28125 -40.222656 C 50.28125 -52.859375 43.785156 -63.539062 27.140625 -63.539062 C 10.5 -63.539062 4.003906 -52.859375 4.003906 -40.222656 L 4.003906 -22.605469 C 4.003906 -11.214844 9.878906 -1.867188 21.714844 0.355469 C 23.316406 9.433594 28.566406 15.394531 36.753906 15.394531 Z M 27.140625 -52.238281 C 34.972656 -52.238281 37.820312 -47.433594 37.820312 -40.222656 L 37.820312 -22.605469 C 37.820312 -15.484375 34.441406 -10.5 27.140625 -10.5 C 19.84375 -10.5 16.464844 -15.484375 16.464844 -22.605469 L 16.464844 -40.222656 C 16.464844 -47.433594 19.3125 -52.238281 27.140625 -52.238281 Z M 27.140625 -52.238281 "/></g></g></g><g fill="#3c3c3d" fill-opacity="1"><g transform="translate(249.927083, 297.620057)"><g><path d="M 27.140625 0.800781 C 42.539062 0.800781 50.28125 -9.609375 50.28125 -22.605469 L 50.28125 -40.222656 C 50.28125 -52.859375 43.785156 -63.539062 27.140625 -63.539062 C 10.5 -63.539062 4.003906 -52.859375 4.003906 -40.222656 L 4.003906 -22.605469 C 4.003906 -9.609375 11.746094 0.800781 27.140625 0.800781 Z M 27.140625 -52.238281 C 34.972656 -52.238281 37.820312 -47.433594 37.820312 -40.222656 L 37.820312 -22.605469 C 37.820312 -15.484375 34.441406 -10.5 27.140625 -10.5 C 19.84375 -10.5 16.464844 -15.484375 16.464844 -22.605469 L 16.464844 -40.222656 C 16.464844 -47.433594 19.3125 -52.238281 27.140625 -52.238281 Z M 27.140625 -52.238281 "/></g></g></g><g fill="#3c3c3d" fill-opacity="1"><g transform="translate(25.466051, 361.603289)"><g><path d="M 9.015625 -17.117188 C 9.46875 -20.375 10.90625 -22.421875 14.316406 -22.421875 C 15.527344 -22.421875 16.4375 -22.078125 17.308594 -21.511719 L 17.648438 -21.285156 C 18.101562 -20.980469 18.332031 -20.714844 19.203125 -20.714844 C 20.753906 -20.714844 22.042969 -21.929688 22.042969 -23.214844 C 22.042969 -25.300781 18.632812 -27.042969 14.769531 -27.042969 C 8.144531 -27.042969 4.542969 -23.101562 3.710938 -17.117188 L 2.652344 -9.621094 C 1.816406 -3.636719 4.28125 0.304688 10.90625 0.304688 C 15.109375 0.304688 19.351562 -1.667969 19.351562 -3.976562 C 19.351562 -5.074219 18.480469 -6.023438 17.15625 -6.023438 C 16.285156 -6.023438 15.980469 -5.71875 15.453125 -5.453125 L 14.996094 -5.226562 C 13.976562 -4.695312 12.992188 -4.316406 11.777344 -4.316406 C 8.371094 -4.316406 7.5 -6.363281 7.953125 -9.621094 Z M 9.015625 -17.117188 "/></g></g></g><g fill="#3c3c3d" fill-opacity="1"><g transform="translate(45.229196, 361.603289)"><g><path d="M 13.371094 -14.617188 C 14.921875 -14.542969 16.398438 -15.679688 16.398438 -17.347656 C 16.398438 -18.445312 15.71875 -19.277344 13.597656 -19.277344 C 12.382812 -19.277344 10.527344 -18.671875 8.671875 -17.648438 C 8.21875 -18.332031 7.613281 -18.824219 6.816406 -18.824219 C 5.339844 -18.824219 3.902344 -17.800781 3.902344 -16.324219 C 3.902344 -15.90625 4.089844 -15.640625 4.28125 -15.300781 C 4.542969 -14.847656 4.542969 -14.390625 4.429688 -13.519531 L 2.839844 -2.082031 C 2.652344 -0.757812 3.636719 0.265625 5.113281 0.265625 C 6.589844 0.265625 7.878906 -0.757812 8.066406 -2.082031 L 9.65625 -13.519531 C 9.695312 -13.746094 9.695312 -13.976562 9.695312 -14.242188 C 11.097656 -14.769531 11.742188 -14.695312 13.371094 -14.617188 Z M 13.371094 -14.617188 "/></g></g></g><g fill="#3c3c3d" fill-opacity="1"><g transform="translate(59.502574, 361.603289)"><g><path d="M 10.871094 -7.234375 C 16.664062 -7.234375 19.125 -9.808594 19.125 -13.898438 C 19.125 -17.195312 16.96875 -19.429688 12.5 -19.429688 C 7.234375 -19.429688 4.015625 -16.511719 3.484375 -12.6875 L 2.613281 -6.363281 C 2.082031 -2.613281 4.542969 0.265625 9.542969 0.265625 C 12.082031 0.265625 17.308594 -0.453125 17.308594 -3.332031 C 17.308594 -4.128906 16.851562 -5.152344 15.226562 -5.152344 C 14.582031 -5.152344 14.242188 -5 14.089844 -4.921875 C 12.800781 -4.394531 11.742188 -4.089844 10.527344 -4.089844 C 8.484375 -4.089844 7.613281 -4.921875 7.800781 -6.210938 L 7.992188 -7.460938 C 9.050781 -7.308594 9.886719 -7.234375 10.871094 -7.234375 Z M 13.898438 -13.671875 C 13.898438 -11.742188 12.875 -11.132812 11.25 -11.132812 C 10.871094 -11.132812 9.734375 -11.171875 8.519531 -11.285156 L 8.75 -12.914062 C 8.976562 -14.429688 10.074219 -15.375 11.890625 -15.375 C 13.21875 -15.375 13.898438 -14.882812 13.898438 -13.671875 Z M 13.898438 -13.671875 "/></g></g></g><g fill="#3c3c3d" fill-opacity="1"><g transform="translate(77.864872, 361.603289)"><g><path d="M 13.027344 -5.644531 C 12.992188 -5.414062 12.992188 -5.1875 12.992188 -4.921875 C 11.742188 -4.394531 10.757812 -4.128906 9.960938 -4.128906 C 8.332031 -4.128906 7.648438 -5.1875 7.914062 -7.15625 L 8.519531 -11.4375 C 8.863281 -13.785156 9.695312 -14.960938 11.550781 -14.960938 C 13.484375 -14.960938 14.242188 -14.242188 13.976562 -12.460938 Z M 8.597656 0.265625 C 10.71875 0.265625 12.234375 -0.304688 13.785156 -1.4375 C 14.503906 -0.226562 15.375 0.152344 16.777344 0.152344 C 19.050781 0.152344 19.808594 -0.757812 19.808594 -2.121094 C 19.808594 -2.726562 19.582031 -3.066406 19.125 -3.257812 C 18.519531 -3.523438 17.953125 -3.410156 18.101562 -4.542969 L 19.089844 -11.589844 C 19.808594 -16.703125 17.953125 -19.429688 12.460938 -19.429688 C 7.042969 -19.429688 3.9375 -15.945312 3.296875 -11.4375 L 2.6875 -7.15625 C 2.082031 -2.726562 4.203125 0.265625 8.597656 0.265625 Z M 8.597656 0.265625 "/></g></g></g><g fill="#3c3c3d" fill-opacity="1"><g transform="translate(98.044485, 361.603289)"><g><path d="M 3.523438 -7.878906 C 2.800781 -2.726562 3.902344 0.152344 9.769531 0.152344 C 11.855469 0.152344 13.785156 -0.1875 13.785156 -2.726562 C 13.785156 -3.863281 13.066406 -4.394531 10.945312 -4.394531 C 10.871094 -4.394531 10.640625 -4.355469 10.300781 -4.355469 C 8.484375 -4.355469 8.40625 -5.339844 8.785156 -8.144531 L 9.582031 -13.863281 L 12.382812 -13.863281 C 13.898438 -13.863281 15.226562 -14.921875 15.226562 -16.359375 C 15.226562 -17.496094 14.316406 -18.367188 13.027344 -18.367188 L 10.226562 -18.367188 L 10.832031 -22.574219 C 11.019531 -23.820312 10.1875 -24.882812 8.519531 -24.882812 C 6.855469 -24.882812 5.792969 -23.859375 5.605469 -22.574219 Z M 3.523438 -7.878906 "/></g></g></g><g fill="#3c3c3d" fill-opacity="1"><g transform="translate(111.712091, 361.603289)"><g><path d="M 11.777344 -24.65625 C 11.777344 -25.980469 10.71875 -27.042969 9.203125 -27.042969 C 7.386719 -27.042969 5.832031 -25.714844 5.832031 -24.125 C 5.832031 -22.800781 6.894531 -21.738281 8.445312 -21.738281 C 10.261719 -21.738281 11.777344 -23.066406 11.777344 -24.65625 Z M 3.332031 -4.203125 C 2.765625 -0.226562 4.808594 0.265625 6.324219 0.265625 C 8.292969 0.265625 9.46875 -0.53125 9.46875 -2.007812 C 9.46875 -2.539062 9.242188 -2.765625 8.976562 -3.105469 C 8.519531 -3.671875 8.519531 -3.863281 8.636719 -4.660156 L 10.378906 -17.003906 C 10.566406 -18.253906 9.582031 -19.316406 8.105469 -19.316406 C 6.628906 -19.316406 5.339844 -18.253906 5.152344 -17.003906 Z M 3.332031 -4.203125 "/></g></g></g><g fill="#3c3c3d" fill-opacity="1"><g transform="translate(122.502322, 361.603289)"><g><path d="M 13.671875 -4.203125 C 13.105469 -0.226562 15.148438 0.265625 16.664062 0.265625 C 18.632812 0.265625 19.808594 -0.53125 19.808594 -2.007812 C 19.808594 -2.539062 19.582031 -2.765625 19.316406 -3.105469 C 18.859375 -3.671875 18.824219 -3.863281 18.9375 -4.660156 L 19.960938 -11.96875 C 20.601562 -16.398438 18.632812 -19.351562 13.863281 -19.351562 C 12.347656 -19.351562 10.492188 -18.859375 8.636719 -17.722656 C 8.179688 -18.40625 7.574219 -18.824219 6.777344 -18.824219 C 5.226562 -18.824219 3.902344 -17.761719 3.902344 -16.398438 C 3.902344 -16.019531 4.015625 -15.71875 4.355469 -15.148438 C 4.46875 -14.921875 4.621094 -14.808594 4.429688 -13.558594 L 2.839844 -2.082031 C 2.652344 -0.796875 3.371094 0.226562 5.113281 0.226562 C 6.855469 0.226562 7.878906 -0.796875 8.066406 -2.082031 L 9.65625 -13.519531 C 9.695312 -13.746094 9.695312 -13.976562 9.695312 -14.242188 C 10.945312 -14.769531 11.929688 -15.035156 12.726562 -15.035156 C 14.242188 -15.035156 14.996094 -13.863281 14.734375 -11.96875 Z M 13.671875 -4.203125 "/></g></g></g><g fill="#3c3c3d" fill-opacity="1"><g transform="translate(143.287686, 361.603289)"><g><path d="M 13.671875 -5.074219 C 12.726562 -4.355469 11.589844 -4.089844 10.453125 -4.089844 C 8.597656 -4.089844 8.027344 -5.1875 8.257812 -6.929688 L 9.015625 -12.269531 C 9.242188 -13.9375 10.300781 -14.960938 12.234375 -14.960938 C 13.976562 -14.960938 14.960938 -14.203125 14.808594 -12.953125 Z M 20.035156 -12.953125 C 20.527344 -16.589844 17.988281 -19.429688 12.875 -19.429688 C 7.5 -19.429688 4.355469 -16.324219 3.789062 -12.269531 L 3.03125 -6.929688 C 2.460938 -2.839844 3.789062 0.226562 9.242188 0.226562 C 10.640625 0.226562 11.816406 0.0390625 13.027344 -0.378906 L 12.800781 1.25 C 12.535156 3.066406 11.550781 4.128906 9.390625 4.128906 C 8.332031 4.128906 7.6875 3.824219 7.007812 3.484375 C 6.476562 3.296875 6.097656 3.257812 5.832031 3.257812 C 4.355469 3.257812 3.105469 4.316406 3.105469 5.644531 C 3.105469 7.800781 7.007812 8.484375 9.089844 8.484375 C 14.617188 8.484375 17.460938 5.300781 18.027344 1.25 Z M 20.035156 -12.953125 "/></g></g></g><g fill="#3c3c3d" fill-opacity="1"><g transform="translate(164.073051, 361.603289)"><g/></g></g><g fill="#3c3c3d" fill-opacity="1"><g transform="translate(175.431172, 361.603289)"><g><path d="M 9.015625 -17.117188 C 9.46875 -20.375 10.90625 -22.421875 14.316406 -22.421875 C 15.527344 -22.421875 16.4375 -22.078125 17.308594 -21.511719 L 17.648438 -21.285156 C 18.101562 -20.980469 18.332031 -20.714844 19.203125 -20.714844 C 20.753906 -20.714844 22.042969 -21.929688 22.042969 -23.214844 C 22.042969 -25.300781 18.632812 -27.042969 14.769531 -27.042969 C 8.144531 -27.042969 4.542969 -23.101562 3.710938 -17.117188 L 2.652344 -9.621094 C 1.816406 -3.636719 4.28125 0.304688 10.90625 0.304688 C 15.109375 0.304688 19.351562 -1.667969 19.351562 -3.976562 C 19.351562 -5.074219 18.480469 -6.023438 17.15625 -6.023438 C 16.285156 -6.023438 15.980469 -5.71875 15.453125 -5.453125 L 14.996094 -5.226562 C 13.976562 -4.695312 12.992188 -4.316406 11.777344 -4.316406 C 8.371094 -4.316406 7.5 -6.363281 7.953125 -9.621094 Z M 9.015625 -17.117188 "/></g></g></g><g fill="#3c3c3d" fill-opacity="1"><g transform="translate(195.194317, 361.603289)"><g><path d="M 9.886719 0.265625 C 15.261719 0.265625 18.519531 -2.800781 19.089844 -6.777344 L 19.882812 -12.421875 C 20.414062 -16.398438 18.027344 -19.464844 12.648438 -19.464844 C 7.273438 -19.464844 3.976562 -16.398438 3.445312 -12.421875 L 2.652344 -6.777344 C 2.082031 -2.800781 4.507812 0.265625 9.886719 0.265625 Z M 10.492188 -4.203125 C 8.519531 -4.203125 7.648438 -5.1875 7.878906 -6.777344 L 8.671875 -12.460938 C 8.898438 -14.011719 10.035156 -14.996094 12.003906 -14.996094 C 13.976562 -14.996094 14.882812 -14.011719 14.65625 -12.460938 L 13.863281 -6.777344 C 13.632812 -5.1875 12.460938 -4.203125 10.492188 -4.203125 Z M 10.492188 -4.203125 "/></g></g></g><g fill="#3c3c3d" fill-opacity="1"><g transform="translate(215.033184, 361.603289)"><g><path d="M 13.671875 -4.203125 C 13.105469 -0.226562 15.148438 0.265625 16.664062 0.265625 C 18.632812 0.265625 19.808594 -0.53125 19.808594 -2.007812 C 19.808594 -2.539062 19.582031 -2.765625 19.316406 -3.105469 C 18.859375 -3.671875 18.824219 -3.863281 18.9375 -4.660156 L 19.960938 -11.96875 C 20.601562 -16.398438 18.632812 -19.351562 13.863281 -19.351562 C 12.347656 -19.351562 10.492188 -18.859375 8.636719 -17.722656 C 8.179688 -18.40625 7.574219 -18.824219 6.777344 -18.824219 C 5.226562 -18.824219 3.902344 -17.761719 3.902344 -16.398438 C 3.902344 -16.019531 4.015625 -15.71875 4.355469 -15.148438 C 4.46875 -14.921875 4.621094 -14.808594 4.429688 -13.558594 L 2.839844 -2.082031 C 2.652344 -0.796875 3.371094 0.226562 5.113281 0.226562 C 6.855469 0.226562 7.878906 -0.796875 8.066406 -2.082031 L 9.65625 -13.519531 C 9.695312 -13.746094 9.695312 -13.976562 9.695312 -14.242188 C 10.945312 -14.769531 11.929688 -15.035156 12.726562 -15.035156 C 14.242188 -15.035156 14.996094 -13.863281 14.734375 -11.96875 Z M 13.671875 -4.203125 "/></g></g></g><g fill="#3c3c3d" fill-opacity="1"><g transform="translate(235.818549, 361.603289)"><g><path d="M 13.671875 -4.203125 C 13.105469 -0.226562 15.148438 0.265625 16.664062 0.265625 C 18.632812 0.265625 19.808594 -0.53125 19.808594 -2.007812 C 19.808594 -2.539062 19.582031 -2.765625 19.316406 -3.105469 C 18.859375 -3.671875 18.824219 -3.863281 18.9375 -4.660156 L 19.960938 -11.96875 C 20.601562 -16.398438 18.632812 -19.351562 13.863281 -19.351562 C 12.347656 -19.351562 10.492188 -18.859375 8.636719 -17.722656 C 8.179688 -18.40625 7.574219 -18.824219 6.777344 -18.824219 C 5.226562 -18.824219 3.902344 -17.761719 3.902344 -16.398438 C 3.902344 -16.019531 4.015625 -15.71875 4.355469 -15.148438 C 4.46875 -14.921875 4.621094 -14.808594 4.429688 -13.558594 L 2.839844 -2.082031 C 2.652344 -0.796875 3.371094 0.226562 5.113281 0.226562 C 6.855469 0.226562 7.878906 -0.796875 8.066406 -2.082031 L 9.65625 -13.519531 C 9.695312 -13.746094 9.695312 -13.976562 9.695312 -14.242188 C 10.945312 -14.769531 11.929688 -15.035156 12.726562 -15.035156 C 14.242188 -15.035156 14.996094 -13.863281 14.734375 -11.96875 Z M 13.671875 -4.203125 "/></g></g></g><g fill="#3c3c3d" fill-opacity="1"><g transform="translate(256.603914, 361.603289)"><g><path d="M 10.871094 -7.234375 C 16.664062 -7.234375 19.125 -9.808594 19.125 -13.898438 C 19.125 -17.195312 16.96875 -19.429688 12.5 -19.429688 C 7.234375 -19.429688 4.015625 -16.511719 3.484375 -12.6875 L 2.613281 -6.363281 C 2.082031 -2.613281 4.542969 0.265625 9.542969 0.265625 C 12.082031 0.265625 17.308594 -0.453125 17.308594 -3.332031 C 17.308594 -4.128906 16.851562 -5.152344 15.226562 -5.152344 C 14.582031 -5.152344 14.242188 -5 14.089844 -4.921875 C 12.800781 -4.394531 11.742188 -4.089844 10.527344 -4.089844 C 8.484375 -4.089844 7.613281 -4.921875 7.800781 -6.210938 L 7.992188 -7.460938 C 9.050781 -7.308594 9.886719 -7.234375 10.871094 -7.234375 Z M 13.898438 -13.671875 C 13.898438 -11.742188 12.875 -11.132812 11.25 -11.132812 C 10.871094 -11.132812 9.734375 -11.171875 8.519531 -11.285156 L 8.75 -12.914062 C 8.976562 -14.429688 10.074219 -15.375 11.890625 -15.375 C 13.21875 -15.375 13.898438 -14.882812 13.898438 -13.671875 Z M 13.898438 -13.671875 "/></g></g></g><g fill="#3c3c3d" fill-opacity="1"><g transform="translate(274.966211, 361.603289)"><g><path d="M 2.6875 -6.96875 C 2.121094 -2.917969 4.128906 0.265625 9.46875 0.265625 C 11.855469 0.265625 16.476562 -0.339844 16.476562 -3.296875 C 16.476562 -4.089844 16.019531 -4.960938 14.316406 -4.960938 C 13.785156 -4.960938 13.519531 -4.886719 13.105469 -4.734375 C 12.308594 -4.429688 11.589844 -4.089844 10.414062 -4.089844 C 8.332031 -4.089844 7.648438 -5.1875 7.914062 -6.96875 L 8.636719 -12.082031 C 8.898438 -13.863281 9.886719 -14.960938 11.96875 -14.960938 C 13.140625 -14.960938 13.671875 -14.617188 14.429688 -14.316406 C 14.921875 -14.125 15.261719 -14.089844 15.640625 -14.089844 C 17.839844 -14.089844 18.292969 -15.375 18.292969 -16.324219 C 18.292969 -18.824219 14.390625 -19.316406 12.269531 -19.316406 C 6.855469 -19.316406 3.976562 -16.132812 3.410156 -12.082031 Z M 2.6875 -6.96875 "/></g></g></g><g fill="#3c3c3d" fill-opacity="1"><g transform="translate(291.738378, 361.603289)"><g><path d="M 3.523438 -7.878906 C 2.800781 -2.726562 3.902344 0.152344 9.769531 0.152344 C 11.855469 0.152344 13.785156 -0.1875 13.785156 -2.726562 C 13.785156 -3.863281 13.066406 -4.394531 10.945312 -4.394531 C 10.871094 -4.394531 10.640625 -4.355469 10.300781 -4.355469 C 8.484375 -4.355469 8.40625 -5.339844 8.785156 -8.144531 L 9.582031 -13.863281 L 12.382812 -13.863281 C 13.898438 -13.863281 15.226562 -14.921875 15.226562 -16.359375 C 15.226562 -17.496094 14.316406 -18.367188 13.027344 -18.367188 L 10.226562 -18.367188 L 10.832031 -22.574219 C 11.019531 -23.820312 10.1875 -24.882812 8.519531 -24.882812 C 6.855469 -24.882812 5.792969 -23.859375 5.605469 -22.574219 Z M 3.523438 -7.878906 "/></g></g></g><g fill="#3c3c3d" fill-opacity="1"><g transform="translate(305.405984, 361.603289)"><g><path d="M 11.777344 -24.65625 C 11.777344 -25.980469 10.71875 -27.042969 9.203125 -27.042969 C 7.386719 -27.042969 5.832031 -25.714844 5.832031 -24.125 C 5.832031 -22.800781 6.894531 -21.738281 8.445312 -21.738281 C 10.261719 -21.738281 11.777344 -23.066406 11.777344 -24.65625 Z M 3.332031 -4.203125 C 2.765625 -0.226562 4.808594 0.265625 6.324219 0.265625 C 8.292969 0.265625 9.46875 -0.53125 9.46875 -2.007812 C 9.46875 -2.539062 9.242188 -2.765625 8.976562 -3.105469 C 8.519531 -3.671875 8.519531 -3.863281 8.636719 -4.660156 L 10.378906 -17.003906 C 10.566406 -18.253906 9.582031 -19.316406 8.105469 -19.316406 C 6.628906 -19.316406 5.339844 -18.253906 5.152344 -17.003906 Z M 3.332031 -4.203125 "/></g></g></g><g fill="#3c3c3d" fill-opacity="1"><g transform="translate(316.196214, 361.603289)"><g><path d="M 9.886719 0.265625 C 15.261719 0.265625 18.519531 -2.800781 19.089844 -6.777344 L 19.882812 -12.421875 C 20.414062 -16.398438 18.027344 -19.464844 12.648438 -19.464844 C 7.273438 -19.464844 3.976562 -16.398438 3.445312 -12.421875 L 2.652344 -6.777344 C 2.082031 -2.800781 4.507812 0.265625 9.886719 0.265625 Z M 10.492188 -4.203125 C 8.519531 -4.203125 7.648438 -5.1875 7.878906 -6.777344 L 8.671875 -12.460938 C 8.898438 -14.011719 10.035156 -14.996094 12.003906 -14.996094 C 13.976562 -14.996094 14.882812 -14.011719 14.65625 -12.460938 L 13.863281 -6.777344 C 13.632812 -5.1875 12.460938 -4.203125 10.492188 -4.203125 Z M 10.492188 -4.203125 "/></g></g></g><g fill="#3c3c3d" fill-opacity="1"><g transform="translate(336.035081, 361.603289)"><g><path d="M 13.671875 -4.203125 C 13.105469 -0.226562 15.148438 0.265625 16.664062 0.265625 C 18.632812 0.265625 19.808594 -0.53125 19.808594 -2.007812 C 19.808594 -2.539062 19.582031 -2.765625 19.316406 -3.105469 C 18.859375 -3.671875 18.824219 -3.863281 18.9375 -4.660156 L 19.960938 -11.96875 C 20.601562 -16.398438 18.632812 -19.351562 13.863281 -19.351562 C 12.347656 -19.351562 10.492188 -18.859375 8.636719 -17.722656 C 8.179688 -18.40625 7.574219 -18.824219 6.777344 -18.824219 C 5.226562 -18.824219 3.902344 -17.761719 3.902344 -16.398438 C 3.902344 -16.019531 4.015625 -15.71875 4.355469 -15.148438 C 4.46875 -14.921875 4.621094 -14.808594 4.429688 -13.558594 L 2.839844 -2.082031 C 2.652344 -0.796875 3.371094 0.226562 5.113281 0.226562 C 6.855469 0.226562 7.878906 -0.796875 8.066406 -2.082031 L 9.65625 -13.519531 C 9.695312 -13.746094 9.695312 -13.976562 9.695312 -14.242188 C 10.945312 -14.769531 11.929688 -15.035156 12.726562 -15.035156 C 14.242188 -15.035156 14.996094 -13.863281 14.734375 -11.96875 Z M 13.671875 -4.203125 "/></g></g></g></svg>