<svg xmlns="http://www.w3.org/2000/svg" xmlns:xlink="http://www.w3.org/1999/xlink" width="500" zoomAndPan="magnify" viewBox="0 0 375 374.999991" height="500" preserveAspectRatio="xMidYMid meet" version="1.0"><defs><g/><clipPath id="b1a4472713"><path d="M 0.292969 120.664062 L 140.625 120.664062 L 140.625 249.101562 L 0.292969 249.101562 Z M 0.292969 120.664062 " clip-rule="nonzero"/></clipPath></defs><g clip-path="url(#b1a4472713)"><path fill="#3c3c3d" d="M 71.28125 187.898438 C 73.410156 187.898438 75.136719 186.171875 75.136719 184.042969 C 75.136719 181.914062 73.410156 180.191406 71.28125 180.191406 C 69.148438 180.191406 67.421875 181.914062 67.421875 184.042969 C 67.421875 186.171875 69.148438 187.898438 71.28125 187.898438 Z M 17.859375 138.925781 C 17.867188 138.921875 17.871094 138.914062 17.878906 138.910156 C 17.882812 141.390625 17.519531 144.011719 16.777344 146.769531 C 10.054688 152.394531 6.011719 159.5625 6.011719 167.324219 C 6.011719 176.136719 11.222656 184.191406 19.65625 190.078125 C 23.800781 192.976562 28.710938 195.34375 34.164062 197.039062 C 35.847656 188.441406 41.488281 180.792969 49.742188 175.023438 C 59.394531 168.28125 72.667969 164.109375 87.277344 164.109375 C 92.300781 164.109375 97.167969 164.605469 101.78125 165.523438 C 101.125 157.417969 96.0625 150.054688 88.210938 144.570312 C 79.484375 138.472656 67.371094 134.703125 53.933594 134.703125 C 49.9375 134.703125 46.058594 135.035156 42.351562 135.664062 C 42.125 135.503906 41.898438 135.339844 41.667969 135.179688 C 39.582031 133.730469 37.417969 132.46875 35.171875 131.398438 C 35.066406 131.347656 34.964844 131.296875 34.859375 131.25 C 34.289062 130.972656 33.695312 130.710938 33.078125 130.460938 C 27.289062 128.050781 20.996094 126.847656 14.199219 126.851562 C 16.402344 130.066406 17.617188 133.648438 17.839844 137.609375 C 17.859375 138.042969 17.863281 138.480469 17.859375 138.925781 Z M 123.351562 230.84375 C 123.347656 230.847656 123.339844 230.851562 123.332031 230.855469 C 123.328125 228.378906 123.695312 225.757812 124.433594 223 C 131.160156 217.375 135.203125 210.207031 135.203125 202.445312 C 135.203125 193.628906 129.988281 185.578125 121.554688 179.6875 C 117.410156 176.792969 112.5 174.421875 107.046875 172.730469 C 105.367188 181.324219 99.726562 188.976562 91.472656 194.742188 C 81.816406 201.488281 68.542969 205.65625 53.933594 205.65625 C 48.910156 205.65625 44.046875 205.164062 39.429688 204.242188 C 40.085938 212.351562 45.148438 219.710938 53 225.199219 C 61.726562 231.292969 73.84375 235.066406 87.277344 235.066406 C 91.273438 235.066406 95.152344 234.730469 98.859375 234.101562 C 99.085938 234.265625 99.3125 234.425781 99.542969 234.585938 C 101.628906 236.039062 103.796875 237.300781 106.039062 238.371094 C 106.144531 238.421875 106.25 238.472656 106.355469 238.519531 C 106.925781 238.796875 107.515625 239.058594 108.132812 239.304688 C 113.921875 241.71875 120.214844 242.921875 127.011719 242.917969 C 124.808594 239.703125 123.59375 236.117188 123.371094 232.160156 C 123.351562 231.726562 123.347656 231.285156 123.351562 230.84375 Z M 83.238281 180.1875 C 81.109375 180.1875 79.382812 181.914062 79.382812 184.042969 C 79.382812 186.171875 81.109375 187.894531 83.238281 187.894531 C 85.371094 187.894531 87.097656 186.171875 87.097656 184.042969 C 87.097656 181.914062 85.371094 180.1875 83.238281 180.1875 Z M 59.320312 187.894531 C 61.453125 187.894531 63.179688 186.171875 63.179688 184.042969 C 63.179688 181.914062 61.453125 180.1875 59.320312 180.1875 C 57.191406 180.1875 55.464844 181.914062 55.464844 184.042969 C 55.464844 186.171875 57.191406 187.894531 59.320312 187.894531 Z M 98.144531 239.988281 C 94.632812 240.503906 91 240.773438 87.277344 240.773438 C 72.667969 240.773438 59.394531 236.601562 49.738281 229.855469 C 39.910156 222.988281 33.785156 213.449219 33.640625 202.824219 C 27.15625 200.9375 21.304688 198.171875 16.394531 194.738281 C 6.445312 187.789062 0.292969 178.101562 0.292969 167.324219 C 0.292969 158.425781 4.484375 150.277344 11.539062 143.792969 C 11.546875 143.746094 11.554688 143.703125 11.5625 143.660156 C 12.335938 140.058594 12.394531 136.785156 11.4375 133.851562 C 10.492188 130.96875 8.511719 128.308594 5.179688 125.863281 C 3.910156 124.933594 3.632812 123.152344 4.5625 121.882812 C 5.175781 121.046875 6.15625 120.644531 7.117188 120.726562 C 15.976562 121.113281 23.109375 121.835938 28.949219 123.230469 C 34.832031 124.632812 39.40625 126.710938 43.066406 129.777344 C 46.574219 129.261719 50.210938 128.988281 53.929688 128.988281 C 68.539062 128.988281 81.816406 133.160156 91.46875 139.90625 C 101.296875 146.773438 107.421875 156.3125 107.566406 166.9375 C 114.050781 168.824219 119.902344 171.589844 124.816406 175.023438 C 134.761719 181.972656 140.917969 191.660156 140.917969 202.4375 C 140.917969 211.335938 136.726562 219.484375 129.667969 225.96875 C 129.664062 226.015625 129.652344 226.058594 129.644531 226.101562 C 128.871094 229.703125 128.8125 232.980469 129.769531 235.910156 C 130.714844 238.792969 132.699219 241.453125 136.027344 243.898438 C 137.296875 244.828125 137.574219 246.609375 136.644531 247.878906 C 136.03125 248.714844 135.050781 249.117188 134.089844 249.035156 C 125.234375 248.652344 118.097656 247.925781 112.261719 246.53125 C 106.378906 245.128906 101.800781 243.050781 98.144531 239.988281 Z M 98.144531 239.988281 " fill-opacity="1" fill-rule="evenodd"/></g><g fill="#3c3c3d" fill-opacity="1"><g transform="translate(167.808052, 184.171643)"><g><path d="M 31 -27.242188 C 31 -33.046875 27.683594 -38.957031 17.296875 -38.957031 L 7.679688 -38.957031 C 5.414062 -38.957031 3.480469 -37.136719 3.480469 -34.980469 L 3.480469 -3.148438 C 3.480469 -1.160156 5.25 0.496094 7.292969 0.496094 C 9.394531 0.496094 11.21875 -1.214844 11.21875 -3.148438 L 11.21875 -15.804688 L 14.976562 -15.804688 L 24.257812 -1.269531 C 24.976562 -0.164062 26.136719 0.441406 27.519531 0.441406 C 30.007812 0.441406 32.714844 -2.488281 30.890625 -5.25 L 23.320312 -16.632812 C 28.074219 -18.179688 31 -21.773438 31 -27.242188 Z M 23.265625 -27.242188 C 23.265625 -24.371094 21.21875 -22.765625 17.40625 -22.765625 L 11.21875 -22.765625 L 11.21875 -31.941406 L 17.074219 -31.941406 C 22.105469 -31.941406 23.265625 -29.5625 23.265625 -27.242188 Z M 23.265625 -27.242188 "/></g></g></g><g fill="#3c3c3d" fill-opacity="1"><g transform="translate(201.789392, 184.171643)"><g><path d="M 3.480469 -3.039062 C 3.480469 -1.160156 5.195312 0.496094 7.351562 0.496094 C 9.449219 0.496094 11.21875 -1.160156 11.21875 -3.039062 L 11.21875 -35.917969 C 11.21875 -37.796875 9.449219 -39.457031 7.351562 -39.457031 C 5.195312 -39.457031 3.480469 -37.796875 3.480469 -35.917969 Z M 3.480469 -3.039062 "/></g></g></g><g fill="#3c3c3d" fill-opacity="1"><g transform="translate(216.542264, 184.171643)"><g><path d="M 22.65625 -16.578125 C 22.65625 -18.402344 21.054688 -19.949219 19.007812 -19.949219 L 5.25 -19.949219 C 3.148438 -19.949219 1.546875 -18.402344 1.546875 -16.578125 C 1.546875 -14.644531 3.148438 -13.207031 5.25 -13.207031 L 19.007812 -13.207031 C 21.054688 -13.207031 22.65625 -14.644531 22.65625 -16.578125 Z M 22.65625 -16.578125 "/></g></g></g><g fill="#3c3c3d" fill-opacity="1"><g transform="translate(240.798859, 184.171643)"><g><path d="M 22.824219 9.558594 C 26.304688 9.558594 28.957031 9.449219 28.957031 6.1875 C 28.957031 4.089844 27.410156 2.816406 25.144531 2.816406 L 23.539062 2.816406 C 22.324219 2.816406 21.550781 1.988281 21.109375 0 C 27.851562 -1.601562 31.222656 -7.292969 31.222656 -14.035156 L 31.222656 -24.976562 C 31.222656 -32.824219 27.1875 -39.457031 16.855469 -39.457031 C 6.519531 -39.457031 2.488281 -32.824219 2.488281 -24.976562 L 2.488281 -14.035156 C 2.488281 -6.960938 6.132812 -1.160156 13.484375 0.222656 C 14.476562 5.859375 17.738281 9.558594 22.824219 9.558594 Z M 16.855469 -32.4375 C 21.71875 -32.4375 23.484375 -29.453125 23.484375 -24.976562 L 23.484375 -14.035156 C 23.484375 -9.617188 21.386719 -6.519531 16.855469 -6.519531 C 12.324219 -6.519531 10.222656 -9.617188 10.222656 -14.035156 L 10.222656 -24.976562 C 10.222656 -29.453125 11.992188 -32.4375 16.855469 -32.4375 Z M 16.855469 -32.4375 "/></g></g></g><g fill="#3c3c3d" fill-opacity="1"><g transform="translate(274.503927, 184.171643)"><g><path d="M 16.855469 0.496094 C 26.414062 0.496094 31.222656 -5.96875 31.222656 -14.035156 L 31.222656 -24.976562 C 31.222656 -32.824219 27.1875 -39.457031 16.855469 -39.457031 C 6.519531 -39.457031 2.488281 -32.824219 2.488281 -24.976562 L 2.488281 -14.035156 C 2.488281 -5.96875 7.292969 0.496094 16.855469 0.496094 Z M 16.855469 -32.4375 C 21.71875 -32.4375 23.484375 -29.453125 23.484375 -24.976562 L 23.484375 -14.035156 C 23.484375 -9.617188 21.386719 -6.519531 16.855469 -6.519531 C 12.324219 -6.519531 10.222656 -9.617188 10.222656 -14.035156 L 10.222656 -24.976562 C 10.222656 -29.453125 11.992188 -32.4375 16.855469 -32.4375 Z M 16.855469 -32.4375 "/></g></g></g><g fill="#3c3c3d" fill-opacity="1"><g transform="translate(168.743592, 223.302055)"><g><path d="M 4.117188 -10.632812 C 4.117188 -12.65625 4.820312 -13.925781 6.9375 -13.925781 C 7.691406 -13.925781 8.304688 -13.738281 8.890625 -13.359375 L 9.125 -13.21875 C 9.433594 -13.03125 9.597656 -12.867188 10.136719 -12.867188 C 11.03125 -12.867188 11.691406 -13.523438 11.691406 -14.277344 C 11.691406 -15.640625 9.316406 -16.792969 6.820312 -16.792969 C 2.703125 -16.792969 0.824219 -14.347656 0.824219 -10.632812 L 0.824219 -5.972656 C 0.824219 -2.257812 2.703125 0.1875 6.820312 0.1875 C 9.316406 0.1875 11.691406 -0.964844 11.691406 -2.328125 C 11.691406 -3.082031 11.03125 -3.738281 10.136719 -3.738281 C 9.597656 -3.738281 9.433594 -3.574219 9.125 -3.386719 L 8.890625 -3.246094 C 8.304688 -2.871094 7.691406 -2.679688 6.9375 -2.679688 C 4.820312 -2.679688 4.117188 -3.953125 4.117188 -5.972656 Z M 4.117188 -10.632812 "/></g></g></g><g fill="#3c3c3d" fill-opacity="1"><g transform="translate(181.016164, 223.302055)"><g><path d="M 7.03125 -9.078125 C 7.925781 -9.03125 8.679688 -9.644531 8.679688 -10.5625 C 8.679688 -11.359375 8.234375 -11.972656 6.75 -11.972656 C 6 -11.972656 4.917969 -11.597656 3.835938 -10.960938 C 3.503906 -11.382812 3.082031 -11.691406 2.585938 -11.691406 C 1.742188 -11.691406 0.988281 -11.125 0.988281 -10.277344 C 0.988281 -9.925781 1.128906 -9.738281 1.316406 -9.503906 C 1.503906 -9.21875 1.574219 -8.9375 1.574219 -8.398438 L 1.574219 -1.292969 C 1.574219 -0.46875 2.28125 0.164062 3.199219 0.164062 C 4.117188 0.164062 4.820312 -0.46875 4.820312 -1.292969 L 4.820312 -8.398438 C 4.820312 -8.539062 4.796875 -8.679688 4.773438 -8.84375 C 5.597656 -9.171875 6.023438 -9.125 7.03125 -9.078125 Z M 7.03125 -9.078125 "/></g></g></g><g fill="#3c3c3d" fill-opacity="1"><g transform="translate(189.879684, 223.302055)"><g><path d="M 6.117188 -4.492188 C 9.292969 -4.492188 10.679688 -5.808594 10.679688 -8.066406 C 10.679688 -10.445312 9.148438 -12.066406 6.070312 -12.066406 C 2.800781 -12.066406 1.058594 -10.253906 1.058594 -7.878906 L 1.058594 -3.953125 C 1.058594 -1.621094 2.847656 0.164062 5.949219 0.164062 C 7.457031 0.164062 10.46875 -0.257812 10.46875 -1.90625 C 10.46875 -2.445312 10.136719 -3.199219 9.007812 -3.199219 C 8.609375 -3.199219 8.398438 -3.105469 8.304688 -3.058594 C 7.550781 -2.730469 6.9375 -2.539062 6.1875 -2.539062 C 4.917969 -2.539062 4.304688 -3.058594 4.304688 -3.859375 L 4.304688 -4.632812 C 4.988281 -4.539062 5.503906 -4.492188 6.117188 -4.492188 Z M 7.457031 -8.234375 C 7.457031 -7.222656 6.890625 -6.914062 6 -6.914062 C 5.761719 -6.914062 5.058594 -6.9375 4.304688 -7.007812 L 4.304688 -8.019531 C 4.304688 -8.960938 4.917969 -9.550781 6.046875 -9.550781 C 6.960938 -9.550781 7.457031 -9.171875 7.457031 -8.234375 Z M 7.457031 -8.234375 "/></g></g></g><g fill="#3c3c3d" fill-opacity="1"><g transform="translate(201.282361, 223.302055)"><g><path d="M 10.585938 -7.199219 C 10.585938 -10.375 9.195312 -12.066406 5.785156 -12.066406 C 3.835938 -12.066406 1.765625 -11.503906 1.765625 -10.113281 C 1.765625 -9.527344 2.140625 -8.75 3.128906 -8.75 C 3.574219 -8.75 3.835938 -8.914062 4.023438 -8.984375 C 4.492188 -9.195312 4.890625 -9.363281 5.550781 -9.363281 C 6.75 -9.363281 7.339844 -8.84375 7.339844 -7.738281 L 7.339844 -6.984375 C 6.726562 -7.175781 6.117188 -7.222656 5.480469 -7.222656 C 2.375 -7.222656 0.824219 -6.023438 0.824219 -3.621094 L 0.824219 -3.550781 C 0.824219 -1.316406 2.28125 0.164062 5.011719 0.164062 C 6.328125 0.164062 7.316406 -0.1875 8.1875 -0.894531 C 8.726562 -0.140625 9.316406 0.09375 10.183594 0.09375 C 11.429688 0.09375 11.878906 -0.375 11.878906 -1.128906 C 11.878906 -1.621094 11.691406 -1.882812 11.335938 -2.023438 C 10.9375 -2.1875 10.585938 -2.117188 10.585938 -2.824219 Z M 5.667969 -4.941406 C 6.140625 -4.941406 6.75 -4.867188 7.339844 -4.75 L 7.339844 -3.058594 C 6.726562 -2.585938 6.117188 -2.445312 5.503906 -2.445312 C 4.492188 -2.445312 4.046875 -2.753906 4.046875 -3.527344 L 4.046875 -3.597656 C 4.046875 -4.304688 4.304688 -4.941406 5.667969 -4.941406 Z M 5.667969 -4.941406 "/></g></g></g><g fill="#3c3c3d" fill-opacity="1"><g transform="translate(213.554933, 223.302055)"><g><path d="M 1.503906 -4.890625 C 1.503906 -1.695312 2.445312 0.09375 6.09375 0.09375 C 7.269531 0.09375 8.351562 -0.09375 8.351562 -1.457031 C 8.351562 -2.328125 7.902344 -2.730469 6.421875 -2.730469 C 6.375 -2.730469 6.234375 -2.703125 6.023438 -2.703125 C 4.890625 -2.703125 4.75 -3.316406 4.75 -5.058594 L 4.75 -8.609375 L 6.492188 -8.609375 C 7.363281 -8.609375 8.042969 -9.195312 8.042969 -9.996094 C 8.042969 -10.796875 7.363281 -11.40625 6.492188 -11.40625 L 4.75 -11.40625 L 4.75 -14.019531 C 4.75 -14.796875 4.164062 -15.453125 3.128906 -15.453125 C 2.09375 -15.453125 1.503906 -14.820312 1.503906 -14.019531 Z M 1.503906 -4.890625 "/></g></g></g><g fill="#3c3c3d" fill-opacity="1"><g transform="translate(222.042286, 223.302055)"><g><path d="M 5.175781 -15.148438 C 5.175781 -16.042969 4.375 -16.792969 3.339844 -16.792969 C 2.304688 -16.792969 1.503906 -16.066406 1.503906 -15.148438 C 1.503906 -14.253906 2.304688 -13.5 3.339844 -13.5 C 4.375 -13.5 5.175781 -14.230469 5.175781 -15.148438 Z M 4.964844 -10.5625 C 4.964844 -11.335938 4.257812 -11.996094 3.339844 -11.996094 C 2.421875 -11.996094 1.71875 -11.335938 1.71875 -10.5625 L 1.71875 -1.292969 C 1.71875 -0.46875 2.421875 0.164062 3.339844 0.164062 C 4.257812 0.164062 4.964844 -0.46875 4.964844 -1.292969 Z M 4.964844 -10.5625 "/></g></g></g><g fill="#3c3c3d" fill-opacity="1"><g transform="translate(228.74283, 223.302055)"><g><path d="M 4.820312 -8.398438 C 4.820312 -8.539062 4.796875 -8.679688 4.773438 -8.84375 C 5.503906 -9.171875 6.09375 -9.339844 6.585938 -9.339844 C 7.527344 -9.339844 8.113281 -8.609375 8.113281 -7.433594 L 8.113281 -1.292969 C 8.113281 -0.492188 8.703125 0.140625 9.738281 0.140625 C 10.773438 0.140625 11.359375 -0.492188 11.359375 -1.292969 L 11.359375 -7.433594 C 11.359375 -10.183594 9.878906 -12.019531 6.914062 -12.019531 C 5.972656 -12.019531 4.867188 -11.714844 3.808594 -11.007812 C 3.480469 -11.429688 3.058594 -11.691406 2.5625 -11.691406 C 1.671875 -11.691406 0.988281 -11.101562 0.988281 -10.324219 C 0.988281 -10.019531 1.058594 -9.855469 1.386719 -9.410156 C 1.480469 -9.269531 1.574219 -9.195312 1.574219 -8.421875 L 1.574219 -1.292969 C 1.574219 -0.492188 2.117188 0.140625 3.199219 0.140625 C 4.28125 0.140625 4.820312 -0.492188 4.820312 -1.292969 Z M 4.820312 -8.398438 "/></g></g></g><g fill="#3c3c3d" fill-opacity="1"><g transform="translate(241.650191, 223.302055)"><g><path d="M 0.824219 1.882812 C 0.824219 4.234375 2.964844 5.691406 6.046875 5.691406 C 9.242188 5.691406 11.574219 4.140625 11.574219 1.648438 C 11.574219 -0.847656 9.21875 -1.976562 6.164062 -1.976562 L 5.175781 -1.976562 C 4.890625 -1.976562 4.515625 -2.070312 4.515625 -2.730469 C 4.515625 -2.894531 4.539062 -2.964844 4.65625 -3.269531 C 5.082031 -3.175781 5.574219 -3.152344 5.949219 -3.152344 C 9.386719 -3.152344 11.007812 -5.011719 11.007812 -7.433594 L 11.007812 -8.75 C 11.007812 -9.410156 11.242188 -9.621094 12.066406 -10.351562 C 12.230469 -10.492188 12.441406 -10.796875 12.441406 -11.195312 C 12.441406 -11.972656 11.714844 -12.5625 10.914062 -12.5625 C 10.253906 -12.5625 9.480469 -12.136719 8.84375 -11.265625 C 7.832031 -11.761719 6.890625 -12.066406 5.691406 -12.066406 C 2.679688 -12.066406 0.988281 -10.136719 0.988281 -7.597656 C 0.988281 -6.304688 1.480469 -5.199219 2.492188 -4.351562 C 2 -3.738281 1.835938 -3.175781 1.835938 -2.632812 C 1.835938 -2.140625 1.953125 -1.363281 2.328125 -0.707031 C 1.222656 0.1875 0.824219 0.964844 0.824219 1.882812 Z M 7.761719 -9.054688 L 7.761719 -7.410156 C 7.761719 -6.351562 7.222656 -5.691406 6.046875 -5.691406 C 4.773438 -5.691406 4.234375 -6.421875 4.234375 -7.550781 C 4.234375 -8.773438 4.890625 -9.457031 6.09375 -9.457031 C 6.632812 -9.457031 7.152344 -9.316406 7.761719 -9.054688 Z M 6.210938 0.683594 C 7.667969 0.683594 8.328125 1.011719 8.328125 1.71875 C 8.328125 2.539062 7.433594 3.035156 6.09375 3.035156 C 4.726562 3.035156 4.070312 2.515625 4.070312 1.648438 C 4.070312 1.269531 4.210938 1.011719 4.492188 0.660156 Z M 6.210938 0.683594 "/></g></g></g><g fill="#3c3c3d" fill-opacity="1"><g transform="translate(254.181385, 223.302055)"><g/></g></g><g fill="#3c3c3d" fill-opacity="1"><g transform="translate(261.234593, 223.302055)"><g><path d="M 4.117188 -10.632812 C 4.117188 -12.65625 4.820312 -13.925781 6.9375 -13.925781 C 7.691406 -13.925781 8.304688 -13.738281 8.890625 -13.359375 L 9.125 -13.21875 C 9.433594 -13.03125 9.597656 -12.867188 10.136719 -12.867188 C 11.03125 -12.867188 11.691406 -13.523438 11.691406 -14.277344 C 11.691406 -15.640625 9.316406 -16.792969 6.820312 -16.792969 C 2.703125 -16.792969 0.824219 -14.347656 0.824219 -10.632812 L 0.824219 -5.972656 C 0.824219 -2.257812 2.703125 0.1875 6.820312 0.1875 C 9.316406 0.1875 11.691406 -0.964844 11.691406 -2.328125 C 11.691406 -3.082031 11.03125 -3.738281 10.136719 -3.738281 C 9.597656 -3.738281 9.433594 -3.574219 9.125 -3.386719 L 8.890625 -3.246094 C 8.304688 -2.871094 7.691406 -2.679688 6.9375 -2.679688 C 4.820312 -2.679688 4.117188 -3.953125 4.117188 -5.972656 Z M 4.117188 -10.632812 "/></g></g></g><g fill="#3c3c3d" fill-opacity="1"><g transform="translate(273.507164, 223.302055)"><g><path d="M 6.164062 0.164062 C 9.503906 0.164062 11.265625 -1.742188 11.265625 -4.210938 L 11.265625 -7.714844 C 11.265625 -10.183594 9.503906 -12.089844 6.164062 -12.089844 C 2.824219 -12.089844 1.058594 -10.183594 1.058594 -7.714844 L 1.058594 -4.210938 C 1.058594 -1.742188 2.824219 0.164062 6.164062 0.164062 Z M 6.164062 -2.609375 C 4.941406 -2.609375 4.304688 -3.222656 4.304688 -4.210938 L 4.304688 -7.738281 C 4.304688 -8.703125 4.941406 -9.316406 6.164062 -9.316406 C 7.386719 -9.316406 8.019531 -8.703125 8.019531 -7.738281 L 8.019531 -4.210938 C 8.019531 -3.222656 7.386719 -2.609375 6.164062 -2.609375 Z M 6.164062 -2.609375 "/></g></g></g><g fill="#3c3c3d" fill-opacity="1"><g transform="translate(285.826757, 223.302055)"><g><path d="M 4.820312 -8.398438 C 4.820312 -8.539062 4.796875 -8.679688 4.773438 -8.84375 C 5.503906 -9.171875 6.09375 -9.339844 6.585938 -9.339844 C 7.527344 -9.339844 8.113281 -8.609375 8.113281 -7.433594 L 8.113281 -1.292969 C 8.113281 -0.492188 8.703125 0.140625 9.738281 0.140625 C 10.773438 0.140625 11.359375 -0.492188 11.359375 -1.292969 L 11.359375 -7.433594 C 11.359375 -10.183594 9.878906 -12.019531 6.914062 -12.019531 C 5.972656 -12.019531 4.867188 -11.714844 3.808594 -11.007812 C 3.480469 -11.429688 3.058594 -11.691406 2.5625 -11.691406 C 1.671875 -11.691406 0.988281 -11.101562 0.988281 -10.324219 C 0.988281 -10.019531 1.058594 -9.855469 1.386719 -9.410156 C 1.480469 -9.269531 1.574219 -9.195312 1.574219 -8.421875 L 1.574219 -1.292969 C 1.574219 -0.492188 2.117188 0.140625 3.199219 0.140625 C 4.28125 0.140625 4.820312 -0.492188 4.820312 -1.292969 Z M 4.820312 -8.398438 "/></g></g></g><g fill="#3c3c3d" fill-opacity="1"><g transform="translate(298.734118, 223.302055)"><g><path d="M 4.820312 -8.398438 C 4.820312 -8.539062 4.796875 -8.679688 4.773438 -8.84375 C 5.503906 -9.171875 6.09375 -9.339844 6.585938 -9.339844 C 7.527344 -9.339844 8.113281 -8.609375 8.113281 -7.433594 L 8.113281 -1.292969 C 8.113281 -0.492188 8.703125 0.140625 9.738281 0.140625 C 10.773438 0.140625 11.359375 -0.492188 11.359375 -1.292969 L 11.359375 -7.433594 C 11.359375 -10.183594 9.878906 -12.019531 6.914062 -12.019531 C 5.972656 -12.019531 4.867188 -11.714844 3.808594 -11.007812 C 3.480469 -11.429688 3.058594 -11.691406 2.5625 -11.691406 C 1.671875 -11.691406 0.988281 -11.101562 0.988281 -10.324219 C 0.988281 -10.019531 1.058594 -9.855469 1.386719 -9.410156 C 1.480469 -9.269531 1.574219 -9.195312 1.574219 -8.421875 L 1.574219 -1.292969 C 1.574219 -0.492188 2.117188 0.140625 3.199219 0.140625 C 4.28125 0.140625 4.820312 -0.492188 4.820312 -1.292969 Z M 4.820312 -8.398438 "/></g></g></g><g fill="#3c3c3d" fill-opacity="1"><g transform="translate(311.641479, 223.302055)"><g><path d="M 6.117188 -4.492188 C 9.292969 -4.492188 10.679688 -5.808594 10.679688 -8.066406 C 10.679688 -10.445312 9.148438 -12.066406 6.070312 -12.066406 C 2.800781 -12.066406 1.058594 -10.253906 1.058594 -7.878906 L 1.058594 -3.953125 C 1.058594 -1.621094 2.847656 0.164062 5.949219 0.164062 C 7.457031 0.164062 10.46875 -0.257812 10.46875 -1.90625 C 10.46875 -2.445312 10.136719 -3.199219 9.007812 -3.199219 C 8.609375 -3.199219 8.398438 -3.105469 8.304688 -3.058594 C 7.550781 -2.730469 6.9375 -2.539062 6.1875 -2.539062 C 4.917969 -2.539062 4.304688 -3.058594 4.304688 -3.859375 L 4.304688 -4.632812 C 4.988281 -4.539062 5.503906 -4.492188 6.117188 -4.492188 Z M 7.457031 -8.234375 C 7.457031 -7.222656 6.890625 -6.914062 6 -6.914062 C 5.761719 -6.914062 5.058594 -6.9375 4.304688 -7.007812 L 4.304688 -8.019531 C 4.304688 -8.960938 4.917969 -9.550781 6.046875 -9.550781 C 6.960938 -9.550781 7.457031 -9.171875 7.457031 -8.234375 Z M 7.457031 -8.234375 "/></g></g></g><g fill="#3c3c3d" fill-opacity="1"><g transform="translate(323.044157, 223.302055)"><g><path d="M 1.058594 -4.328125 C 1.058594 -1.8125 2.585938 0.164062 5.902344 0.164062 C 7.316406 0.164062 9.949219 -0.1875 9.949219 -1.882812 C 9.949219 -2.421875 9.667969 -3.082031 8.445312 -3.082031 C 8.113281 -3.082031 7.949219 -3.035156 7.714844 -2.941406 C 7.246094 -2.753906 6.84375 -2.539062 6.117188 -2.539062 C 4.820312 -2.539062 4.304688 -3.222656 4.304688 -4.328125 L 4.304688 -7.503906 C 4.304688 -8.609375 4.820312 -9.292969 6.117188 -9.292969 C 6.84375 -9.292969 7.222656 -9.078125 7.714844 -8.890625 C 8.042969 -8.773438 8.257812 -8.75 8.492188 -8.75 C 9.667969 -8.75 9.949219 -9.386719 9.949219 -9.949219 C 9.949219 -11.667969 7.316406 -11.996094 5.925781 -11.996094 C 2.5625 -11.996094 1.058594 -10.019531 1.058594 -7.503906 Z M 1.058594 -4.328125 "/></g></g></g><g fill="#3c3c3d" fill-opacity="1"><g transform="translate(333.459382, 223.302055)"><g><path d="M 1.503906 -4.890625 C 1.503906 -1.695312 2.445312 0.09375 6.09375 0.09375 C 7.269531 0.09375 8.351562 -0.09375 8.351562 -1.457031 C 8.351562 -2.328125 7.902344 -2.730469 6.421875 -2.730469 C 6.375 -2.730469 6.234375 -2.703125 6.023438 -2.703125 C 4.890625 -2.703125 4.75 -3.316406 4.75 -5.058594 L 4.75 -8.609375 L 6.492188 -8.609375 C 7.363281 -8.609375 8.042969 -9.195312 8.042969 -9.996094 C 8.042969 -10.796875 7.363281 -11.40625 6.492188 -11.40625 L 4.75 -11.40625 L 4.75 -14.019531 C 4.75 -14.796875 4.164062 -15.453125 3.128906 -15.453125 C 2.09375 -15.453125 1.503906 -14.820312 1.503906 -14.019531 Z M 1.503906 -4.890625 "/></g></g></g><g fill="#3c3c3d" fill-opacity="1"><g transform="translate(341.946734, 223.302055)"><g><path d="M 5.175781 -15.148438 C 5.175781 -16.042969 4.375 -16.792969 3.339844 -16.792969 C 2.304688 -16.792969 1.503906 -16.066406 1.503906 -15.148438 C 1.503906 -14.253906 2.304688 -13.5 3.339844 -13.5 C 4.375 -13.5 5.175781 -14.230469 5.175781 -15.148438 Z M 4.964844 -10.5625 C 4.964844 -11.335938 4.257812 -11.996094 3.339844 -11.996094 C 2.421875 -11.996094 1.71875 -11.335938 1.71875 -10.5625 L 1.71875 -1.292969 C 1.71875 -0.46875 2.421875 0.164062 3.339844 0.164062 C 4.257812 0.164062 4.964844 -0.46875 4.964844 -1.292969 Z M 4.964844 -10.5625 "/></g></g></g><g fill="#3c3c3d" fill-opacity="1"><g transform="translate(348.647278, 223.302055)"><g><path d="M 6.164062 0.164062 C 9.503906 0.164062 11.265625 -1.742188 11.265625 -4.210938 L 11.265625 -7.714844 C 11.265625 -10.183594 9.503906 -12.089844 6.164062 -12.089844 C 2.824219 -12.089844 1.058594 -10.183594 1.058594 -7.714844 L 1.058594 -4.210938 C 1.058594 -1.742188 2.824219 0.164062 6.164062 0.164062 Z M 6.164062 -2.609375 C 4.941406 -2.609375 4.304688 -3.222656 4.304688 -4.210938 L 4.304688 -7.738281 C 4.304688 -8.703125 4.941406 -9.316406 6.164062 -9.316406 C 7.386719 -9.316406 8.019531 -8.703125 8.019531 -7.738281 L 8.019531 -4.210938 C 8.019531 -3.222656 7.386719 -2.609375 6.164062 -2.609375 Z M 6.164062 -2.609375 "/></g></g></g><g fill="#3c3c3d" fill-opacity="1"><g transform="translate(360.966871, 223.302055)"><g><path d="M 4.820312 -8.398438 C 4.820312 -8.539062 4.796875 -8.679688 4.773438 -8.84375 C 5.503906 -9.171875 6.09375 -9.339844 6.585938 -9.339844 C 7.527344 -9.339844 8.113281 -8.609375 8.113281 -7.433594 L 8.113281 -1.292969 C 8.113281 -0.492188 8.703125 0.140625 9.738281 0.140625 C 10.773438 0.140625 11.359375 -0.492188 11.359375 -1.292969 L 11.359375 -7.433594 C 11.359375 -10.183594 9.878906 -12.019531 6.914062 -12.019531 C 5.972656 -12.019531 4.867188 -11.714844 3.808594 -11.007812 C 3.480469 -11.429688 3.058594 -11.691406 2.5625 -11.691406 C 1.671875 -11.691406 0.988281 -11.101562 0.988281 -10.324219 C 0.988281 -10.019531 1.058594 -9.855469 1.386719 -9.410156 C 1.480469 -9.269531 1.574219 -9.195312 1.574219 -8.421875 L 1.574219 -1.292969 C 1.574219 -0.492188 2.117188 0.140625 3.199219 0.140625 C 4.28125 0.140625 4.820312 -0.492188 4.820312 -1.292969 Z M 4.820312 -8.398438 "/></g></g></g><path stroke-linecap="round" transform="matrix(0.000000000000000057, -0.937388, 0.9375, 0.000000000000000057, 156.023461, 249.515609)" fill="none" stroke-linejoin="miter" d="M 1.000103 0.999975 L 130.019673 0.999975 " stroke="#d9d9d9" stroke-width="2" stroke-opacity="1" stroke-miterlimit="4"/></svg>