<svg xmlns="http://www.w3.org/2000/svg" xmlns:xlink="http://www.w3.org/1999/xlink" width="500" zoomAndPan="magnify" viewBox="0 0 375 374.999991" height="500" preserveAspectRatio="xMidYMid meet" version="1.0"><defs><clipPath id="efaca0478d"><path d="M 0 16.054688 L 375 16.054688 L 375 358.804688 L 0 358.804688 Z M 0 16.054688 " clip-rule="nonzero"/></clipPath></defs><g clip-path="url(#efaca0478d)"><path fill="#3c3c3d" d="M 185.699219 195.46875 C 180.019531 195.46875 175.414062 190.867188 175.414062 185.1875 C 175.414062 179.507812 180.019531 174.90625 185.699219 174.90625 C 191.382812 174.90625 195.988281 179.507812 195.988281 185.1875 C 195.988281 190.867188 191.382812 195.46875 185.699219 195.46875 Z M 328.15625 64.78125 C 328.136719 64.769531 328.125 64.757812 328.105469 64.746094 C 328.089844 71.363281 329.066406 78.351562 331.042969 85.71875 C 348.972656 100.722656 359.753906 119.855469 359.753906 140.570312 C 359.753906 164.09375 345.847656 185.578125 323.367188 201.296875 C 312.3125 209.023438 299.214844 215.347656 284.675781 219.863281 C 280.191406 196.925781 265.148438 176.507812 243.136719 161.121094 C 217.394531 143.121094 181.996094 131.992188 143.039062 131.992188 C 129.640625 131.992188 116.667969 133.308594 104.359375 135.765625 C 106.109375 114.132812 119.609375 94.488281 140.550781 79.847656 C 163.820312 63.578125 196.128906 53.515625 231.957031 53.515625 C 242.609375 53.515625 252.953125 54.40625 262.839844 56.085938 C 263.445312 55.648438 264.050781 55.21875 264.664062 54.792969 C 270.226562 50.921875 276.003906 47.554688 281.988281 44.695312 C 282.265625 44.558594 282.546875 44.425781 282.828125 44.296875 C 284.347656 43.558594 285.925781 42.859375 287.570312 42.199219 C 303.007812 35.765625 319.789062 32.550781 337.917969 32.5625 C 332.039062 41.136719 328.804688 50.707031 328.207031 61.265625 C 328.15625 62.429688 328.140625 63.601562 328.15625 64.78125 Z M 46.839844 310.078125 C 46.859375 310.089844 46.875 310.101562 46.890625 310.113281 C 46.90625 303.496094 45.929688 296.507812 43.953125 289.144531 C 26.023438 274.136719 15.242188 255.003906 15.242188 234.289062 C 15.242188 210.769531 29.148438 189.28125 51.628906 173.566406 C 62.683594 165.835938 75.78125 159.507812 90.320312 154.996094 C 94.804688 177.933594 109.847656 198.351562 131.859375 213.738281 C 157.601562 231.738281 193 242.867188 231.957031 242.867188 C 245.355469 242.867188 258.328125 241.550781 270.636719 239.09375 C 268.886719 260.730469 255.386719 280.375 234.445312 295.015625 C 211.175781 311.28125 178.867188 321.34375 143.039062 321.34375 C 132.386719 321.34375 122.042969 320.453125 112.15625 318.777344 C 111.550781 319.210938 110.945312 319.644531 110.332031 320.066406 C 104.769531 323.941406 98.992188 327.304688 93.007812 330.167969 C 92.730469 330.300781 92.449219 330.433594 92.167969 330.5625 C 90.648438 331.300781 89.070312 332 87.425781 332.660156 C 71.988281 339.097656 55.207031 342.308594 37.078125 342.296875 C 42.957031 333.722656 46.191406 324.152344 46.789062 313.59375 C 46.839844 312.429688 46.855469 311.257812 46.839844 310.078125 Z M 153.808594 174.902344 C 159.492188 174.902344 164.097656 179.503906 164.097656 185.183594 C 164.097656 190.863281 159.492188 195.464844 153.808594 195.464844 C 148.128906 195.464844 143.523438 190.863281 143.523438 185.183594 C 143.523438 179.503906 148.128906 174.902344 153.808594 174.902344 Z M 217.589844 195.464844 C 211.910156 195.464844 207.304688 190.863281 207.304688 185.183594 C 207.304688 179.503906 211.910156 174.902344 217.589844 174.902344 C 223.273438 174.902344 227.878906 179.503906 227.878906 185.183594 C 227.878906 190.863281 223.273438 195.464844 217.589844 195.464844 Z M 114.066406 334.476562 C 123.429688 335.851562 133.117188 336.574219 143.042969 336.574219 C 182 336.574219 217.398438 325.445312 243.140625 307.445312 C 269.355469 289.121094 285.6875 263.660156 286.070312 235.308594 C 303.367188 230.265625 318.96875 222.890625 332.066406 213.730469 C 358.597656 195.183594 375.003906 169.332031 375.003906 140.566406 C 375.003906 116.828125 363.828125 95.074219 345.011719 77.773438 C 344.992188 77.652344 344.96875 77.535156 344.945312 77.417969 C 342.886719 67.808594 342.726562 59.066406 345.285156 51.25 C 347.800781 43.550781 353.085938 36.453125 361.96875 29.925781 C 365.355469 27.445312 366.089844 22.6875 363.609375 19.300781 C 361.976562 17.078125 359.363281 15.996094 356.804688 16.222656 C 333.183594 17.246094 314.15625 19.179688 298.585938 22.898438 C 282.902344 26.644531 270.695312 32.191406 260.941406 40.367188 C 251.578125 38.992188 241.890625 38.269531 231.964844 38.269531 C 193.007812 38.269531 157.609375 49.398438 131.863281 67.398438 C 105.652344 85.726562 89.320312 111.1875 88.933594 139.535156 C 71.640625 144.578125 56.039062 151.953125 42.941406 161.113281 C 16.410156 179.660156 0.00390625 205.511719 0.00390625 234.277344 C 0.00390625 258.015625 11.179688 279.769531 29.996094 297.074219 C 30.015625 297.191406 30.039062 297.308594 30.058594 297.429688 C 32.121094 307.035156 32.28125 315.777344 29.722656 323.597656 C 27.207031 331.292969 21.921875 338.394531 13.039062 344.917969 C 9.652344 347.398438 8.917969 352.15625 11.398438 355.542969 C 13.03125 357.765625 15.644531 358.847656 18.203125 358.621094 C 41.824219 357.597656 60.851562 355.664062 76.421875 351.945312 C 92.105469 348.199219 104.3125 342.652344 114.066406 334.476562 Z M 114.066406 334.476562 " fill-opacity="1" fill-rule="evenodd"/></g></svg>