<?xml version="1.0" encoding="utf-8"?>
<!-- Generator: Adobe Illustrator 27.2.0, SVG Export Plug-In . SVG Version: 6.00 Build 0)  -->
<svg version="1.1" id="Layer_1" xmlns="http://www.w3.org/2000/svg" xmlns:xlink="http://www.w3.org/1999/xlink" x="0px" y="0px"
	 viewBox="0 0 1532.67 1070.41" style="enable-background:new 0 0 1532.67 1070.41;" xml:space="preserve">
<style type="text/css">
	.st0{fill:#FEE589;}
	.st1{fill:#9A1420;}
	.st2{fill:#EF4136;}
	.st3{fill:#F15A29;}
	.st4{fill:#F7941D;}
	.st5{fill:url(#SVGID_1_);}
	.st6{fill:url(#SVGID_00000029734998666684566490000000659535294964577212_);}
	.st7{fill:#5B83C3;}
	.st8{fill:#5759A7;}
	.st9{fill:url(#SVGID_00000024701485023661670560000005032557214802525878_);}
	.st10{fill:url(#SVGID_00000114059971382909785020000011145474046789268611_);}
	.st11{fill:url(#SVGID_00000022532609105905319100000003501242932632435105_);}
	.st12{fill:url(#SVGID_00000162354477899851461830000003963486683430525111_);}
	.st13{fill:url(#SVGID_00000113348077896318458250000008001266950373399434_);}
	.st14{fill:url(#SVGID_00000116220437282862088040000017163076160768890774_);}
	.st15{fill:url(#SVGID_00000015325440716988352240000015010843091655827105_);}
	.st16{fill:url(#SVGID_00000178906856525807145550000014831285035478104247_);}
	.st17{fill:url(#SVGID_00000070826076448991245510000003636228969175233694_);}
	.st18{fill:url(#SVGID_00000168795430353448256760000005933048627731009721_);}
	.st19{fill:url(#SVGID_00000105421247068034283920000000117141609986657967_);}
	.st20{fill:url(#SVGID_00000171680639733982915360000006185865976276993189_);}
	.st21{fill:url(#SVGID_00000039838402364573758570000010499742461750168253_);}
	.st22{fill:url(#SVGID_00000000944375355882556180000001916303027384649149_);}
	.st23{fill:url(#SVGID_00000017484934188675761740000018150334767268401586_);}
	.st24{fill:url(#SVGID_00000126286040156775923210000000248722564677869476_);}
	.st25{fill:url(#SVGID_00000144327128502020483650000014956570628422494391_);}
	.st26{fill:url(#SVGID_00000181768623211074491720000000117420091449431208_);}
	.st27{fill:url(#SVGID_00000008142218382524174530000017349605512025831348_);}
	.st28{fill:url(#SVGID_00000009564825947800089820000011200613267712966287_);}
	.st29{fill:url(#SVGID_00000026124522294489743840000001716761601745984170_);}
	.st30{fill:url(#SVGID_00000180367552673349358980000012826240330364352179_);}
	.st31{fill:url(#SVGID_00000003810065618697195630000007624767279636578741_);}
	.st32{fill:url(#SVGID_00000179624523204943690540000007883153832195009432_);}
	.st33{fill:url(#SVGID_00000168090574646279062210000018213924694802424964_);}
	.st34{fill:url(#SVGID_00000181051148587978359070000005908979544998278062_);}
	.st35{fill:url(#SVGID_00000105386900374529518260000004385670573845322143_);}
	.st36{fill:url(#SVGID_00000091720426179891364070000011319371004913376901_);}
	.st37{fill:url(#SVGID_00000138543036799884872750000016615589172353972115_);}
	.st38{fill:url(#SVGID_00000035514376454330482230000000599977218520126090_);}
	.st39{fill:url(#SVGID_00000136379412841977209130000018170177865453199784_);}
	.st40{fill:url(#SVGID_00000049933016208121542760000005314656298860928650_);}
</style>
<linearGradient id="SVGID_1_" gradientUnits="userSpaceOnUse" x1="1122.6447" y1="161.936" x2="1123.2443" y2="161.936">
	<stop  offset="0" style="stop-color:#FFF33B"/>
	<stop  offset="0.0595" style="stop-color:#FFE029"/>
	<stop  offset="0.1303" style="stop-color:#FFD217"/>
	<stop  offset="0.2032" style="stop-color:#FEC90E"/>
	<stop  offset="0.2809" style="stop-color:#FDC70C"/>
	<stop  offset="0.6685" style="stop-color:#F3903F"/>
	<stop  offset="0.8876" style="stop-color:#ED683C"/>
	<stop  offset="1" style="stop-color:#E93E3A"/>
</linearGradient>
<path class="st5" d="M1123.24,162.11c-0.2-0.12-0.4-0.23-0.6-0.35C1122.87,161.89,1123.07,162.01,1123.24,162.11z"/>
<linearGradient id="SVGID_00000055684541065858777490000010568623353400120497_" gradientUnits="userSpaceOnUse" x1="1031.9001" y1="107.609" x2="1033.0502" y2="107.609">
	<stop  offset="0" style="stop-color:#FFF33B"/>
	<stop  offset="0.0595" style="stop-color:#FFE029"/>
	<stop  offset="0.1303" style="stop-color:#FFD217"/>
	<stop  offset="0.2032" style="stop-color:#FEC90E"/>
	<stop  offset="0.2809" style="stop-color:#FDC70C"/>
	<stop  offset="0.6685" style="stop-color:#F3903F"/>
	<stop  offset="0.8876" style="stop-color:#ED683C"/>
	<stop  offset="1" style="stop-color:#E93E3A"/>
</linearGradient>
<path style="fill:url(#SVGID_00000055684541065858777490000010568623353400120497_);" d="M1031.9,107.32
	c0.43,0.2,0.81,0.39,1.15,0.58C1032.72,107.72,1032.33,107.52,1031.9,107.32z"/>
<path class="st7" d="M1131.52,163.44c-0.37-0.27-0.74-0.53-1.11-0.79C1130.76,162.88,1131.13,163.15,1131.52,163.44z"/>
<path class="st8" d="M1104.6,159.89c1.6-0.52,3.13-0.91,4.61-1.17c-3.88,0.74-6.77,2.09-8.69,3c-4.38,2.07-7.25,4.38-10.13,6.71
	c-3.04,2.44-5.37,4.74-7,6.47C1086.61,171.01,1093.89,163.38,1104.6,159.89z"/>
<path class="st8" d="M1117.84,158.32c-0.26-0.03-0.52-0.05-0.79-0.06c-0.27-0.03-0.55-0.04-0.83-0.05c-1.02-0.04-2.09-0.03-3.2,0.03
	C1114.25,158.15,1115.89,158.11,1117.84,158.32z"/>
<path class="st8" d="M1117.85,158.32c0.35,0.03,0.69,0.07,1.02,0.12c-0.36-0.06-0.69-0.08-1.03-0.12
	C1117.84,158.32,1117.85,158.32,1117.85,158.32z"/>
<path class="st8" d="M1128.85,161.69c-0.01-0.01-0.02-0.01-0.03-0.01c-0.39-0.14-4.83-2.46-9.95-3.24c0.31,0.03,0.61,0.08,0.9,0.13
	c0.22,0.03,0.43,0.07,0.64,0.11c0.2,0.03,0.39,0.07,0.58,0.11c0.26,0.06,0.52,0.11,0.77,0.17c0.31,0.07,0.61,0.15,0.9,0.23
	c0.57,0.15,1.11,0.32,1.62,0.48c1.44,0.49,2.64,1.02,3.59,1.5c0.18,0.09,0.35,0.18,0.52,0.27c0.12,0.06,0.21,0.11,0.28,0.15
	c0.05,0.03,0.1,0.06,0.15,0.08C1128.84,161.68,1128.85,161.69,1128.85,161.69z"/>
<linearGradient id="SVGID_00000144306045596456806450000010635771069836714915_" gradientUnits="userSpaceOnUse" x1="1083.3916" y1="166.8094" x2="1109.2117" y2="166.8094">
	<stop  offset="0" style="stop-color:#CB72AE"/>
	<stop  offset="0.0122" style="stop-color:#C46FAD"/>
	<stop  offset="0.0633" style="stop-color:#AA65A9"/>
	<stop  offset="0.1154" style="stop-color:#975EA6"/>
	<stop  offset="0.1685" style="stop-color:#8959A5"/>
	<stop  offset="0.2229" style="stop-color:#8157A4"/>
	<stop  offset="0.2809" style="stop-color:#7E56A3"/>
	<stop  offset="0.6685" style="stop-color:#5F67AF"/>
	<stop  offset="0.8876" style="stop-color:#688EC9"/>
	<stop  offset="1" style="stop-color:#73CDDA"/>
</linearGradient>
<path style="fill:url(#SVGID_00000144306045596456806450000010635771069836714915_);" d="M1104.6,159.89
	c1.6-0.52,3.13-0.91,4.61-1.17c-3.88,0.74-6.77,2.09-8.69,3c-4.38,2.07-7.25,4.38-10.13,6.71c-3.04,2.44-5.37,4.74-7,6.47
	C1086.61,171.01,1093.89,163.38,1104.6,159.89z"/>
<linearGradient id="SVGID_00000020362149467711239860000000726030254630511233_" gradientUnits="userSpaceOnUse" x1="1118.8716" y1="160.0594" x2="1128.8217" y2="160.0594">
	<stop  offset="0" style="stop-color:#CB72AE"/>
	<stop  offset="0.0122" style="stop-color:#C46FAD"/>
	<stop  offset="0.0633" style="stop-color:#AA65A9"/>
	<stop  offset="0.1154" style="stop-color:#975EA6"/>
	<stop  offset="0.1685" style="stop-color:#8959A5"/>
	<stop  offset="0.2229" style="stop-color:#8157A4"/>
	<stop  offset="0.2809" style="stop-color:#7E56A3"/>
	<stop  offset="0.6685" style="stop-color:#5F67AF"/>
	<stop  offset="0.8876" style="stop-color:#688EC9"/>
	<stop  offset="1" style="stop-color:#73CDDA"/>
</linearGradient>
<path style="fill:url(#SVGID_00000020362149467711239860000000726030254630511233_);" d="M1128.82,161.67L1128.82,161.67
	c-0.39-0.13-4.83-2.45-9.95-3.23c0.31,0.03,0.61,0.08,0.9,0.13c0.22,0.03,0.43,0.07,0.64,0.11c0.2,0.03,0.39,0.07,0.58,0.11
	c0.26,0.06,0.52,0.11,0.77,0.17c0.31,0.07,0.61,0.15,0.9,0.23c0.57,0.15,1.11,0.32,1.62,0.48c1.44,0.49,2.64,1.02,3.59,1.5
	c0.18,0.09,0.35,0.18,0.52,0.27c0.09,0.05,0.19,0.1,0.28,0.15C1128.72,161.62,1128.77,161.65,1128.82,161.67z"/>
<linearGradient id="SVGID_00000067925262087511371540000011706199805004702090_" gradientUnits="userSpaceOnUse" x1="400.5116" y1="161.5944" x2="400.5517" y2="161.5944">
	<stop  offset="0" style="stop-color:#CB72AE"/>
	<stop  offset="0.0122" style="stop-color:#C46FAD"/>
	<stop  offset="0.0633" style="stop-color:#AA65A9"/>
	<stop  offset="0.1154" style="stop-color:#975EA6"/>
	<stop  offset="0.1685" style="stop-color:#8959A5"/>
	<stop  offset="0.2229" style="stop-color:#8157A4"/>
	<stop  offset="0.2809" style="stop-color:#7E56A3"/>
	<stop  offset="0.6685" style="stop-color:#5F67AF"/>
	<stop  offset="0.8876" style="stop-color:#688EC9"/>
	<stop  offset="1" style="stop-color:#73CDDA"/>
</linearGradient>
<path style="fill:url(#SVGID_00000067925262087511371540000011706199805004702090_);" d="M400.55,161.58
	c-0.01,0.01-0.01,0.01-0.02,0.02c-0.01,0-0.01,0-0.02,0.01C400.52,161.59,400.54,161.59,400.55,161.58z"/>
<path class="st7" d="M398.71,162.7c-0.37,0.26-0.74,0.52-1.11,0.79C397.99,163.2,398.36,162.93,398.71,162.7z"/>
<path class="st8" d="M409.35,158.62c0.29-0.05,0.59-0.1,0.9-0.13c-5.1,0.77-9.53,3.07-9.95,3.23c0.05-0.02,0.1-0.05,0.15-0.08
	c0.02-0.01,0.04-0.02,0.06-0.03c0.01-0.01,0.01-0.01,0.02-0.01c0.05-0.04,0.12-0.07,0.2-0.11c0.17-0.09,0.34-0.18,0.52-0.27
	c0.95-0.48,2.15-1.01,3.59-1.5c0.51-0.16,1.05-0.33,1.62-0.48c0.29-0.08,0.59-0.16,0.9-0.23c0.25-0.06,0.51-0.11,0.77-0.17
	c0.19-0.04,0.38-0.08,0.58-0.11C408.92,158.69,409.13,158.65,409.35,158.62z"/>
<path class="st8" d="M416.09,158.29c-1.11-0.06-2.17-0.07-3.19-0.03c-0.28,0.01-0.56,0.02-0.83,0.05c-0.27,0.01-0.54,0.03-0.8,0.06
	c-0.35,0.03-0.69,0.07-1.02,0.12C412.66,158.11,414.66,158.17,416.09,158.29z"/>
<path class="st8" d="M445.73,174.95c-1.62-1.73-3.96-4.03-6.99-6.48c-2.89-2.32-5.76-4.63-10.14-6.7c-1.92-0.91-4.81-2.26-8.69-3
	c1.48,0.26,3.01,0.65,4.61,1.17C435.23,163.43,442.51,171.06,445.73,174.95z"/>
<g>
	
		<linearGradient id="SVGID_00000138546611305400950590000000955257935978340523_" gradientUnits="userSpaceOnUse" x1="1146.4659" y1="483.7159" x2="1253.916" y2="483.7159">
		<stop  offset="0" style="stop-color:#F89B45"/>
		<stop  offset="2.564240e-03" style="stop-color:#F89944"/>
		<stop  offset="0.0555" style="stop-color:#F58135"/>
		<stop  offset="0.1095" style="stop-color:#F36D2B"/>
		<stop  offset="0.1644" style="stop-color:#F15E26"/>
		<stop  offset="0.2208" style="stop-color:#F05323"/>
		<stop  offset="0.2809" style="stop-color:#F05023"/>
		<stop  offset="0.6685" style="stop-color:#EE4687"/>
		<stop  offset="0.8876" style="stop-color:#C358A1"/>
		<stop  offset="1" style="stop-color:#8557A3"/>
	</linearGradient>
	<path style="fill:url(#SVGID_00000138546611305400950590000000955257935978340523_);" d="M1253.92,208.39V757.9
		c0,19.12-14.5,34.61-32.38,34.61c-17.89,0-32.39-15.49-32.39-34.61V307.49c-14.23,20.49-28.45,41-42.68,61.49V258.47
		c16.23-23.2,31.35-44.73,44.84-63.92c0.31-0.44,0.76-1.08,1.37-1.86c3.2-4.13,10.47-12.28,21.17-15.97
		c12.91-4.46,22.1,0.56,24.87,2.34c0.31,0.21,0.62,0.42,0.93,0.65c0.32,0.23,0.67,0.51,1.02,0.78
		C1248.7,186.79,1253.92,196.94,1253.92,208.39z"/>
	
		<linearGradient id="SVGID_00000019639696749358317640000009395286187796017800_" gradientUnits="userSpaceOnUse" x1="278.756" y1="483.7391" x2="386.206" y2="483.7391">
		<stop  offset="0" style="stop-color:#EF5A5F"/>
		<stop  offset="0.0282" style="stop-color:#EF5958"/>
		<stop  offset="0.0885" style="stop-color:#EE564A"/>
		<stop  offset="0.1502" style="stop-color:#EE543F"/>
		<stop  offset="0.2135" style="stop-color:#EE5238"/>
		<stop  offset="0.2809" style="stop-color:#EE5236"/>
		<stop  offset="0.6685" style="stop-color:#CC5495"/>
		<stop  offset="0.8876" style="stop-color:#B5569F"/>
		<stop  offset="1" style="stop-color:#9B57A3"/>
	</linearGradient>
	<path style="fill:url(#SVGID_00000019639696749358317640000009395286187796017800_);" d="M341.37,194.59
		c13.49,19.18,28.61,40.72,44.84,63.91v110.51c-14.23-20.49-28.45-40.99-42.68-61.48V757.9c0,19.12-14.5,34.61-32.39,34.61
		c-17.88,0-32.38-15.49-32.38-34.61V208.44c0-11.47,5.22-21.6,13.25-27.9c0.35-0.29,0.7-0.55,1.02-0.79
		c0.31-0.22,0.62-0.43,0.93-0.64c2.77-1.78,11.96-6.8,24.87-2.35c10.7,3.7,17.97,11.84,21.17,15.97
		C340.61,193.51,341.06,194.16,341.37,194.59z"/>
	
		<linearGradient id="SVGID_00000116232596381053961200000001924578811286112643_" gradientUnits="userSpaceOnUse" x1="386.206" y1="444.2457" x2="493.696" y2="444.2457">
		<stop  offset="0" style="stop-color:#E7E53E"/>
		<stop  offset="0.125" style="stop-color:#EFE333"/>
		<stop  offset="0.2809" style="stop-color:#F2E32E"/>
		<stop  offset="0.6685" style="stop-color:#FDBE69"/>
		<stop  offset="0.8876" style="stop-color:#F2673A"/>
		<stop  offset="1" style="stop-color:#F04B33"/>
	</linearGradient>
	<path style="fill:url(#SVGID_00000116232596381053961200000001924578811286112643_);" d="M493.7,209.51v115.25
		c-14.24-21.4-28.48-42.79-42.72-64.19v469.51c0,19.93-14.5,36.08-32.39,36.08c-17.88,0-32.38-16.15-32.38-36.08V157.22
		c0-11.78,5.07-22.24,12.91-28.81c0.08-0.09,0.17-0.16,0.26-0.22c0.37-0.3,0.74-0.6,1.11-0.88c0.02-0.01,0.05-0.04,0.07-0.06
		c0.16-0.1,0.33-0.23,0.49-0.36c0.03-0.02,0.06-0.03,0.09-0.05c0.08-0.06,0.16-0.13,0.24-0.17c0.01-0.01,0.02-0.02,0.03-0.02
		c0.1-0.06,0.2-0.14,0.3-0.2c0.11-0.07,0.23-0.15,0.34-0.21c0.01-0.01,0.02-0.01,0.03-0.03c0.42-0.18,4.85-2.74,9.95-3.59
		c0.33-0.05,0.67-0.09,1.02-0.14c0.26-0.03,0.53-0.05,0.8-0.06c0.27-0.03,0.55-0.04,0.83-0.05c1.02-0.05,2.08-0.03,3.19,0.03
		c0.34,0.03,0.68,0.05,1.03,0.09c0.32,0.03,0.63,0.07,0.93,0.12c0.6,0.08,1.22,0.19,1.86,0.32c3.88,0.83,6.77,2.33,8.69,3.34
		c4.38,2.31,7.25,4.87,10.14,7.46c3.03,2.72,5.37,5.29,6.99,7.22c0.61,0.82,1.08,1.49,1.39,1.96
		C462.38,162.91,477.48,185.34,493.7,209.51z"/>
	
		<linearGradient id="SVGID_00000013904861625778146110000016182780785836822968_" gradientUnits="userSpaceOnUse" x1="1038.976" y1="444.2182" x2="1146.4659" y2="444.2182">
		<stop  offset="0" style="stop-color:#E7E53E"/>
		<stop  offset="0.125" style="stop-color:#EFE333"/>
		<stop  offset="0.2809" style="stop-color:#F2E32E"/>
		<stop  offset="0.6685" style="stop-color:#FDBE69"/>
		<stop  offset="0.8876" style="stop-color:#F2673A"/>
		<stop  offset="1" style="stop-color:#F04B33"/>
	</linearGradient>
	<path style="fill:url(#SVGID_00000013904861625778146110000016182780785836822968_);" d="M1146.47,157.16v572.92
		c0,19.93-14.5,36.08-32.38,36.08c-17.89,0-32.39-16.15-32.39-36.08V260.53c-14.24,21.4-28.48,42.79-42.72,64.19V209.47
		c16.22-24.17,31.31-46.62,44.8-66.61c0.31-0.47,0.78-1.14,1.39-1.97c1.63-1.92,3.96-4.49,7-7.2c2.88-2.6,5.75-5.17,10.13-7.48
		c1.92-1.01,4.81-2.52,8.69-3.33c0.64-0.14,1.26-0.25,1.86-0.32c0.3-0.04,0.61-0.09,0.93-0.12c0.35-0.04,0.69-0.06,1.02-0.09
		c1.11-0.07,2.18-0.08,3.2-0.04c0.28,0.01,0.56,0.03,0.83,0.06c0.27,0.01,0.54,0.03,0.8,0.06c0.35,0.03,0.69,0.08,1.02,0.14
		c5.12,0.87,9.56,3.45,9.95,3.61c0.01,0,0.02,0,0.03,0.01c0.11,0.07,0.23,0.15,0.34,0.21c0.1,0.07,0.2,0.14,0.3,0.21
		c0.01,0,0.02,0.01,0.03,0.02c0.08,0.04,0.16,0.09,0.24,0.17c0.03,0.02,0.06,0.03,0.09,0.05c0.16,0.13,0.33,0.24,0.49,0.36
		c0.02,0.02,0.05,0.04,0.07,0.05c0.37,0.29,0.74,0.59,1.11,0.88c0.09,0.07,0.18,0.14,0.26,0.23
		C1141.4,134.93,1146.47,145.39,1146.47,157.16z"/>
	
		<linearGradient id="SVGID_00000163789768372335688790000001199754776417518466_" gradientUnits="userSpaceOnUse" x1="493.696" y1="401.0044" x2="1038.976" y2="401.0044">
		<stop  offset="0" style="stop-color:#A2509F"/>
		<stop  offset="8.828389e-03" style="stop-color:#A74E9B"/>
		<stop  offset="0.0605" style="stop-color:#C1428B"/>
		<stop  offset="0.1134" style="stop-color:#D43581"/>
		<stop  offset="0.1671" style="stop-color:#E12979"/>
		<stop  offset="0.2222" style="stop-color:#E91E75"/>
		<stop  offset="0.2809" style="stop-color:#ED1973"/>
		<stop  offset="0.6685" style="stop-color:#F5841F"/>
		<stop  offset="0.8876" style="stop-color:#F16122"/>
		<stop  offset="1" style="stop-color:#ED1E31"/>
	</linearGradient>
	<path style="fill:url(#SVGID_00000163789768372335688790000001199754776417518466_);" d="M1038.98,101.78v597.21
		c0,20.77-14.5,37.61-32.39,37.61c-17.88,0-32.38-16.84-32.38-37.61V209.42c-56.46,88.36-112.93,176.72-169.4,265.08
		c-12.82,20.07-25.65,40.15-38.48,60.22c-12.84-20.07-25.67-40.15-38.49-60.22c-56.46-88.35-112.92-176.7-169.37-265.03v489.57
		c0,20.76-14.5,37.6-32.38,37.6c-17.89,0-32.39-16.84-32.39-37.6V101.83c0-12.26,5.06-23.14,12.89-30.01
		c0.26-0.23,0.51-0.45,0.75-0.66c0.45-0.38,0.92-0.74,1.39-1.09c0.12-0.09,0.24-0.16,0.36-0.24s0.24-0.17,0.36-0.25
		c0.04-0.02,0.08-0.04,0.12-0.08c0.09-0.06,0.19-0.11,0.29-0.18c0.33-0.21,0.72-0.45,1.15-0.68c0.01-0.01,0.03-0.02,0.05-0.03
		c0.18-0.1,0.38-0.2,0.58-0.3c0.05-0.04,0.1-0.06,0.15-0.09c0.18-0.09,0.36-0.18,0.55-0.26c0.36-0.18,0.73-0.34,1.12-0.51
		c0.69-0.29,1.44-0.57,2.25-0.84c0.25-0.07,0.51-0.15,0.78-0.22c0.05-0.02,0.11-0.04,0.17-0.05c0.31-0.09,0.64-0.17,0.97-0.25
		c0.41-0.1,0.84-0.19,1.29-0.26c0.31-0.07,0.63-0.11,0.95-0.16c0.28-0.04,0.56-0.07,0.85-0.1c0.15-0.03,0.3-0.04,0.45-0.05
		c0.36-0.04,0.72-0.06,1.09-0.07c0.41-0.02,0.83-0.04,1.26-0.04c3.05,0,6.47,0.53,10.21,1.92c10.79,4.02,18.06,12.95,21.2,17.37
		c0,0.01,0.01,0.03,0.01,0.03c0.54,0.76,0.96,1.4,1.25,1.84c54.48,84.12,135.45,210.22,210.14,327.45
		C841.02,296.77,922,170.66,976.49,86.53c0.29-0.45,0.71-1.08,1.25-1.85c0,0,0.01-0.01,0.01-0.02c3.14-4.43,10.41-13.36,21.2-17.38
		c3.74-1.39,7.16-1.91,10.21-1.91c0.43,0,0.85,0.01,1.26,0.03c0.37,0.01,0.73,0.04,1.09,0.07c0.15,0.01,0.3,0.03,0.45,0.05
		c0.29,0.03,0.57,0.07,0.85,0.1c0.32,0.05,0.64,0.1,0.95,0.17c0.45,0.07,0.88,0.16,1.29,0.25c0.33,0.08,0.66,0.16,0.97,0.26
		c0.06,0.01,0.12,0.02,0.17,0.04c0.27,0.07,0.53,0.15,0.78,0.22c0.81,0.27,1.56,0.55,2.25,0.84c0.39,0.17,0.76,0.34,1.12,0.51
		c0.19,0.08,0.37,0.17,0.55,0.27c0.05,0.02,0.1,0.04,0.15,0.08c0.2,0.1,0.4,0.21,0.58,0.3c0.02,0.01,0.04,0.02,0.05,0.04
		c0.43,0.23,0.82,0.46,1.15,0.67c0.1,0.07,0.2,0.13,0.29,0.19c0.04,0.03,0.08,0.05,0.12,0.08l0.36,0.24
		c0.12,0.08,0.24,0.15,0.36,0.24c0.47,0.35,0.94,0.71,1.39,1.1c0.24,0.2,0.49,0.43,0.75,0.66
		C1033.92,78.64,1038.98,89.52,1038.98,101.78z"/>
</g>
<linearGradient id="SVGID_00000162340749055442694530000007253057739915655594_" gradientUnits="userSpaceOnUse" x1="346.7639" y1="766.1604" x2="1185.9081" y2="766.1604">
	<stop  offset="0" style="stop-color:#A2509F"/>
	<stop  offset="8.828389e-03" style="stop-color:#A74E9B"/>
	<stop  offset="0.0605" style="stop-color:#C1428B"/>
	<stop  offset="0.1134" style="stop-color:#D43581"/>
	<stop  offset="0.1671" style="stop-color:#E12979"/>
	<stop  offset="0.2222" style="stop-color:#E91E75"/>
	<stop  offset="0.2809" style="stop-color:#ED1973"/>
	<stop  offset="0.6685" style="stop-color:#F5841F"/>
	<stop  offset="0.8876" style="stop-color:#F16122"/>
	<stop  offset="1" style="stop-color:#ED1E31"/>
</linearGradient>
<path style="fill:url(#SVGID_00000162340749055442694530000007253057739915655594_);" d="M764.53,712.51l-411.22,91
	c-9.74,2.16-8.18,16.5,1.8,16.5h822.44c9.98,0,11.55-14.34,1.8-16.5l-411.22-91C766.95,712.25,765.72,712.25,764.53,712.51z"/>
</svg>
