<svg xmlns="http://www.w3.org/2000/svg" xmlns:xlink="http://www.w3.org/1999/xlink" width="500" zoomAndPan="magnify" viewBox="0 0 375 374.999991" height="500" preserveAspectRatio="xMidYMid meet" version="1.0"><path fill="#ff5757" d="M 355.484375 187.5 L 366.808594 152.546875 C 375.273438 126.390625 363.496094 97.9375 339.011719 85.429688 L 306.296875 68.71875 L 289.585938 36.007812 C 277.082031 11.523438 248.628906 -0.273438 222.46875 8.210938 L 187.5 19.515625 L 152.546875 8.191406 C 126.390625 -0.273438 97.9375 11.503906 85.429688 35.988281 L 68.703125 68.703125 L 35.988281 85.429688 C 11.503906 97.9375 -0.273438 126.390625 8.191406 152.546875 L 19.515625 187.5 L 8.191406 222.453125 C -0.273438 248.609375 11.503906 277.0625 35.988281 289.570312 L 68.703125 306.28125 L 85.414062 338.992188 C 97.917969 363.476562 126.371094 375.273438 152.53125 366.789062 L 187.5 355.484375 L 222.453125 366.808594 C 248.609375 375.273438 277.0625 363.496094 289.570312 339.011719 L 306.28125 306.296875 L 338.992188 289.585938 C 363.476562 277.082031 375.273438 248.628906 366.789062 222.46875 Z M 196.601562 296.722656 L 178.398438 296.722656 C 173.375 296.722656 169.296875 292.644531 169.296875 287.621094 L 169.296875 269.417969 C 169.296875 264.394531 173.375 260.316406 178.398438 260.316406 L 196.601562 260.316406 C 201.625 260.316406 205.703125 264.394531 205.703125 269.417969 L 205.703125 287.621094 C 205.703125 292.644531 201.625 296.722656 196.601562 296.722656 Z M 224.382812 216.40625 C 216.425781 223.542969 210.78125 228.804688 207.886719 234.027344 C 204.957031 239.382812 198.804688 242.113281 192.707031 242.113281 C 178.417969 242.113281 169.84375 226.402344 177.324219 214.222656 C 183.53125 204.136719 192.324219 196.257812 200.042969 189.320312 C 214.84375 176.050781 223.90625 167.09375 223.90625 151.09375 C 223.90625 137.019531 214.023438 114.683594 187.5 114.683594 C 169.679688 114.683594 158.972656 128.226562 154.152344 139.351562 C 151.148438 146.269531 144.777344 151.09375 137.238281 151.09375 L 137.039062 151.09375 C 124.023438 151.09375 115.339844 137.804688 120.382812 125.808594 C 130.195312 102.488281 152.585938 78.277344 187.5 78.277344 C 233.082031 78.277344 260.316406 115.304688 260.316406 151.09375 C 260.316406 184.152344 239.542969 202.808594 224.382812 216.40625 Z M 224.382812 216.40625 " fill-opacity="1" fill-rule="nonzero"/></svg>