<svg xmlns="http://www.w3.org/2000/svg" xmlns:xlink="http://www.w3.org/1999/xlink" width="500" zoomAndPan="magnify" viewBox="0 0 375 374.999991" height="500" preserveAspectRatio="xMidYMid meet" version="1.0"><defs><g/></defs><g fill="#3c3c3d" fill-opacity="1"><g transform="translate(60.689212, 185.818117)"><g><path d="M 55.996094 -49.210938 C 55.996094 -59.691406 50.007812 -70.371094 31.242188 -70.371094 L 13.875 -70.371094 C 9.78125 -70.371094 6.289062 -67.078125 6.289062 -63.183594 L 6.289062 -5.691406 C 6.289062 -2.097656 9.484375 0.898438 13.175781 0.898438 C 16.96875 0.898438 20.261719 -2.195312 20.261719 -5.691406 L 20.261719 -28.546875 L 27.050781 -28.546875 L 43.820312 -2.296875 C 45.117188 -0.300781 47.214844 0.796875 49.707031 0.796875 C 54.199219 0.796875 59.089844 -4.492188 55.796875 -9.484375 L 42.121094 -30.046875 C 50.707031 -32.839844 55.996094 -39.328125 55.996094 -49.210938 Z M 42.023438 -49.210938 C 42.023438 -44.019531 38.328125 -41.125 31.441406 -41.125 L 20.261719 -41.125 L 20.261719 -57.695312 L 30.84375 -57.695312 C 39.925781 -57.695312 42.023438 -53.402344 42.023438 -49.210938 Z M 42.023438 -49.210938 "/></g></g></g><g fill="#3c3c3d" fill-opacity="1"><g transform="translate(122.069911, 185.818117)"><g><path d="M 6.289062 -5.488281 C 6.289062 -2.097656 9.382812 0.898438 13.277344 0.898438 C 17.070312 0.898438 20.261719 -2.097656 20.261719 -5.488281 L 20.261719 -64.882812 C 20.261719 -68.273438 17.070312 -71.269531 13.277344 -71.269531 C 9.382812 -71.269531 6.289062 -68.273438 6.289062 -64.882812 Z M 6.289062 -5.488281 "/></g></g></g><g fill="#3c3c3d" fill-opacity="1"><g transform="translate(148.718111, 185.818117)"><g><path d="M 40.925781 -29.945312 C 40.925781 -33.238281 38.03125 -36.035156 34.335938 -36.035156 L 9.484375 -36.035156 C 5.691406 -36.035156 2.792969 -33.238281 2.792969 -29.945312 C 2.792969 -26.453125 5.691406 -23.855469 9.484375 -23.855469 L 34.335938 -23.855469 C 38.03125 -23.855469 40.925781 -26.453125 40.925781 -29.945312 Z M 40.925781 -29.945312 "/></g></g></g><g fill="#3c3c3d" fill-opacity="1"><g transform="translate(192.532945, 185.818117)"><g><path d="M 41.222656 17.269531 C 47.511719 17.269531 52.304688 17.070312 52.304688 11.179688 C 52.304688 7.386719 49.507812 5.089844 45.417969 5.089844 L 42.523438 5.089844 C 40.324219 5.089844 38.929688 3.59375 38.128906 0 C 50.308594 -2.894531 56.398438 -13.175781 56.398438 -25.355469 L 56.398438 -45.117188 C 56.398438 -59.292969 49.109375 -71.269531 30.445312 -71.269531 C 11.777344 -71.269531 4.492188 -59.292969 4.492188 -45.117188 L 4.492188 -25.355469 C 4.492188 -12.578125 11.078125 -2.097656 24.355469 0.398438 C 26.152344 10.582031 32.042969 17.269531 41.222656 17.269531 Z M 30.445312 -58.59375 C 39.226562 -58.59375 42.421875 -53.203125 42.421875 -45.117188 L 42.421875 -25.355469 C 42.421875 -17.367188 38.628906 -11.777344 30.445312 -11.777344 C 22.257812 -11.777344 18.464844 -17.367188 18.464844 -25.355469 L 18.464844 -45.117188 C 18.464844 -53.203125 21.660156 -58.59375 30.445312 -58.59375 Z M 30.445312 -58.59375 "/></g></g></g><g fill="#3c3c3d" fill-opacity="1"><g transform="translate(253.414612, 185.818117)"><g><path d="M 30.445312 0.898438 C 47.710938 0.898438 56.398438 -10.78125 56.398438 -25.355469 L 56.398438 -45.117188 C 56.398438 -59.292969 49.109375 -71.269531 30.445312 -71.269531 C 11.777344 -71.269531 4.492188 -59.292969 4.492188 -45.117188 L 4.492188 -25.355469 C 4.492188 -10.78125 13.175781 0.898438 30.445312 0.898438 Z M 30.445312 -58.59375 C 39.226562 -58.59375 42.421875 -53.203125 42.421875 -45.117188 L 42.421875 -25.355469 C 42.421875 -17.367188 38.628906 -11.777344 30.445312 -11.777344 C 22.257812 -11.777344 18.464844 -17.367188 18.464844 -25.355469 L 18.464844 -45.117188 C 18.464844 -53.203125 21.660156 -58.59375 30.445312 -58.59375 Z M 30.445312 -58.59375 "/></g></g></g><g fill="#3c3c3d" fill-opacity="1"><g transform="translate(1.668072, 257.584823)"><g><path d="M 10.109375 -19.199219 C 10.621094 -22.855469 12.234375 -25.148438 16.058594 -25.148438 C 17.417969 -25.148438 18.4375 -24.765625 19.414062 -24.128906 L 19.796875 -23.875 C 20.304688 -23.535156 20.558594 -23.238281 21.539062 -23.238281 C 23.277344 -23.238281 24.722656 -24.597656 24.722656 -26.039062 C 24.722656 -28.375 20.898438 -30.332031 16.566406 -30.332031 C 9.132812 -30.332031 5.097656 -25.914062 4.164062 -19.199219 L 2.972656 -10.789062 C 2.039062 -4.078125 4.800781 0.339844 12.234375 0.339844 C 16.949219 0.339844 21.707031 -1.867188 21.707031 -4.460938 C 21.707031 -5.691406 20.730469 -6.753906 19.242188 -6.753906 C 18.265625 -6.753906 17.925781 -6.414062 17.332031 -6.117188 L 16.820312 -5.863281 C 15.675781 -5.265625 14.570312 -4.84375 13.210938 -4.84375 C 9.386719 -4.84375 8.410156 -7.136719 8.921875 -10.789062 Z M 10.109375 -19.199219 "/></g></g></g><g fill="#3c3c3d" fill-opacity="1"><g transform="translate(23.835355, 257.584823)"><g><path d="M 14.996094 -16.398438 C 16.738281 -16.3125 18.394531 -17.585938 18.394531 -19.457031 C 18.394531 -20.6875 17.628906 -21.621094 15.25 -21.621094 C 13.890625 -21.621094 11.808594 -20.941406 9.726562 -19.796875 C 9.21875 -20.558594 8.539062 -21.113281 7.644531 -21.113281 C 5.988281 -21.113281 4.375 -19.964844 4.375 -18.308594 C 4.375 -17.839844 4.585938 -17.542969 4.800781 -17.160156 C 5.097656 -16.652344 5.097656 -16.140625 4.96875 -15.164062 L 3.1875 -2.335938 C 2.972656 -0.847656 4.078125 0.296875 5.734375 0.296875 C 7.390625 0.296875 8.835938 -0.847656 9.046875 -2.335938 L 10.832031 -15.164062 C 10.875 -15.421875 10.875 -15.675781 10.875 -15.972656 C 12.445312 -16.566406 13.167969 -16.480469 14.996094 -16.398438 Z M 14.996094 -16.398438 "/></g></g></g><g fill="#3c3c3d" fill-opacity="1"><g transform="translate(39.845054, 257.584823)"><g><path d="M 12.191406 -8.113281 C 18.691406 -8.113281 21.453125 -11.003906 21.453125 -15.589844 C 21.453125 -19.285156 19.03125 -21.792969 14.019531 -21.792969 C 8.113281 -21.792969 4.503906 -18.519531 3.90625 -14.230469 L 2.929688 -7.136719 C 2.335938 -2.929688 5.097656 0.296875 10.703125 0.296875 C 13.550781 0.296875 19.414062 -0.507812 19.414062 -3.738281 C 19.414062 -4.628906 18.902344 -5.777344 17.078125 -5.777344 C 16.355469 -5.777344 15.972656 -5.605469 15.800781 -5.523438 C 14.359375 -4.925781 13.167969 -4.585938 11.808594 -4.585938 C 9.515625 -4.585938 8.539062 -5.523438 8.75 -6.964844 L 8.964844 -8.367188 C 10.152344 -8.199219 11.085938 -8.113281 12.191406 -8.113281 Z M 15.589844 -15.335938 C 15.589844 -13.167969 14.441406 -12.488281 12.617188 -12.488281 C 12.191406 -12.488281 10.917969 -12.53125 9.558594 -12.660156 L 9.8125 -14.484375 C 10.066406 -16.183594 11.300781 -17.246094 13.339844 -17.246094 C 14.824219 -17.246094 15.589844 -16.695312 15.589844 -15.335938 Z M 15.589844 -15.335938 "/></g></g></g><g fill="#3c3c3d" fill-opacity="1"><g transform="translate(60.44108, 257.584823)"><g><path d="M 14.613281 -6.328125 C 14.570312 -6.074219 14.570312 -5.820312 14.570312 -5.523438 C 13.167969 -4.925781 12.0625 -4.628906 11.171875 -4.628906 C 9.34375 -4.628906 8.582031 -5.820312 8.878906 -8.027344 L 9.558594 -12.828125 C 9.941406 -15.460938 10.875 -16.78125 12.957031 -16.78125 C 15.121094 -16.78125 15.972656 -15.972656 15.675781 -13.976562 Z M 9.644531 0.296875 C 12.023438 0.296875 13.722656 -0.339844 15.460938 -1.613281 C 16.269531 -0.253906 17.246094 0.167969 18.820312 0.167969 C 21.367188 0.167969 22.21875 -0.847656 22.21875 -2.378906 C 22.21875 -3.058594 21.960938 -3.441406 21.453125 -3.652344 C 20.773438 -3.949219 20.136719 -3.824219 20.304688 -5.097656 L 21.410156 -13 C 22.21875 -18.734375 20.136719 -21.792969 13.976562 -21.792969 C 7.902344 -21.792969 4.417969 -17.882812 3.695312 -12.828125 L 3.015625 -8.027344 C 2.335938 -3.058594 4.714844 0.296875 9.644531 0.296875 Z M 9.644531 0.296875 "/></g></g></g><g fill="#3c3c3d" fill-opacity="1"><g transform="translate(83.075493, 257.584823)"><g><path d="M 3.949219 -8.835938 C 3.144531 -3.058594 4.375 0.167969 10.960938 0.167969 C 13.296875 0.167969 15.460938 -0.210938 15.460938 -3.058594 C 15.460938 -4.332031 14.65625 -4.925781 12.277344 -4.925781 C 12.191406 -4.925781 11.9375 -4.886719 11.554688 -4.886719 C 9.515625 -4.886719 9.429688 -5.988281 9.855469 -9.132812 L 10.746094 -15.546875 L 13.890625 -15.546875 C 15.589844 -15.546875 17.078125 -16.738281 17.078125 -18.351562 C 17.078125 -19.625 16.058594 -20.601562 14.613281 -20.601562 L 11.46875 -20.601562 L 12.148438 -25.316406 C 12.363281 -26.71875 11.425781 -27.910156 9.558594 -27.910156 C 7.6875 -27.910156 6.5 -26.761719 6.285156 -25.316406 Z M 3.949219 -8.835938 "/></g></g></g><g fill="#3c3c3d" fill-opacity="1"><g transform="translate(98.40573, 257.584823)"><g><path d="M 13.210938 -27.65625 C 13.210938 -29.140625 12.023438 -30.332031 10.324219 -30.332031 C 8.285156 -30.332031 6.542969 -28.84375 6.542969 -27.058594 C 6.542969 -25.574219 7.730469 -24.382812 9.472656 -24.382812 C 11.511719 -24.382812 13.210938 -25.871094 13.210938 -27.65625 Z M 3.738281 -4.714844 C 3.101562 -0.253906 5.394531 0.296875 7.09375 0.296875 C 9.304688 0.296875 10.621094 -0.59375 10.621094 -2.25 C 10.621094 -2.847656 10.363281 -3.101562 10.066406 -3.484375 C 9.558594 -4.121094 9.558594 -4.332031 9.683594 -5.226562 L 11.640625 -19.074219 C 11.851562 -20.476562 10.746094 -21.664062 9.089844 -21.664062 C 7.433594 -21.664062 5.988281 -20.476562 5.777344 -19.074219 Z M 3.738281 -4.714844 "/></g></g></g><g fill="#3c3c3d" fill-opacity="1"><g transform="translate(110.508565, 257.584823)"><g><path d="M 15.335938 -4.714844 C 14.699219 -0.253906 16.992188 0.296875 18.691406 0.296875 C 20.898438 0.296875 22.21875 -0.59375 22.21875 -2.25 C 22.21875 -2.847656 21.960938 -3.101562 21.664062 -3.484375 C 21.15625 -4.121094 21.113281 -4.332031 21.238281 -5.226562 L 22.386719 -13.421875 C 23.109375 -18.394531 20.898438 -21.707031 15.546875 -21.707031 C 13.847656 -21.707031 11.765625 -21.15625 9.683594 -19.878906 C 9.175781 -20.644531 8.496094 -21.113281 7.605469 -21.113281 C 5.863281 -21.113281 4.375 -19.921875 4.375 -18.394531 C 4.375 -17.96875 4.503906 -17.628906 4.886719 -16.992188 C 5.011719 -16.738281 5.183594 -16.609375 4.96875 -15.207031 L 3.1875 -2.335938 C 2.972656 -0.890625 3.78125 0.253906 5.734375 0.253906 C 7.6875 0.253906 8.835938 -0.890625 9.046875 -2.335938 L 10.832031 -15.164062 C 10.875 -15.421875 10.875 -15.675781 10.875 -15.972656 C 12.277344 -16.566406 13.382812 -16.863281 14.273438 -16.863281 C 15.972656 -16.863281 16.820312 -15.546875 16.523438 -13.421875 Z M 15.335938 -4.714844 "/></g></g></g><g fill="#3c3c3d" fill-opacity="1"><g transform="translate(133.822418, 257.584823)"><g><path d="M 15.335938 -5.691406 C 14.273438 -4.886719 13 -4.585938 11.722656 -4.585938 C 9.644531 -4.585938 9.003906 -5.820312 9.261719 -7.773438 L 10.109375 -13.761719 C 10.363281 -15.632812 11.554688 -16.78125 13.722656 -16.78125 C 15.675781 -16.78125 16.78125 -15.929688 16.609375 -14.527344 Z M 22.472656 -14.527344 C 23.023438 -18.605469 20.179688 -21.792969 14.441406 -21.792969 C 8.410156 -21.792969 4.886719 -18.308594 4.246094 -13.761719 L 3.398438 -7.773438 C 2.761719 -3.1875 4.246094 0.253906 10.363281 0.253906 C 11.9375 0.253906 13.253906 0.0429688 14.613281 -0.425781 L 14.359375 1.402344 C 14.0625 3.441406 12.957031 4.628906 10.535156 4.628906 C 9.34375 4.628906 8.625 4.289062 7.859375 3.90625 C 7.265625 3.695312 6.839844 3.652344 6.542969 3.652344 C 4.886719 3.652344 3.484375 4.84375 3.484375 6.328125 C 3.484375 8.75 7.859375 9.515625 10.195312 9.515625 C 16.398438 9.515625 19.582031 5.945312 20.21875 1.402344 Z M 22.472656 -14.527344 "/></g></g></g><g fill="#3c3c3d" fill-opacity="1"><g transform="translate(157.136271, 257.584823)"><g/></g></g><g fill="#3c3c3d" fill-opacity="1"><g transform="translate(169.87608, 257.584823)"><g><path d="M 10.109375 -19.199219 C 10.621094 -22.855469 12.234375 -25.148438 16.058594 -25.148438 C 17.417969 -25.148438 18.4375 -24.765625 19.414062 -24.128906 L 19.796875 -23.875 C 20.304688 -23.535156 20.558594 -23.238281 21.539062 -23.238281 C 23.277344 -23.238281 24.722656 -24.597656 24.722656 -26.039062 C 24.722656 -28.375 20.898438 -30.332031 16.566406 -30.332031 C 9.132812 -30.332031 5.097656 -25.914062 4.164062 -19.199219 L 2.972656 -10.789062 C 2.039062 -4.078125 4.800781 0.339844 12.234375 0.339844 C 16.949219 0.339844 21.707031 -1.867188 21.707031 -4.460938 C 21.707031 -5.691406 20.730469 -6.753906 19.242188 -6.753906 C 18.265625 -6.753906 17.925781 -6.414062 17.332031 -6.117188 L 16.820312 -5.863281 C 15.675781 -5.265625 14.570312 -4.84375 13.210938 -4.84375 C 9.386719 -4.84375 8.410156 -7.136719 8.921875 -10.789062 Z M 10.109375 -19.199219 "/></g></g></g><g fill="#3c3c3d" fill-opacity="1"><g transform="translate(192.043363, 257.584823)"><g><path d="M 11.085938 0.296875 C 17.121094 0.296875 20.773438 -3.144531 21.410156 -7.605469 L 22.300781 -13.933594 C 22.898438 -18.394531 20.21875 -21.835938 14.1875 -21.835938 C 8.15625 -21.835938 4.460938 -18.394531 3.867188 -13.933594 L 2.972656 -7.605469 C 2.335938 -3.144531 5.054688 0.296875 11.085938 0.296875 Z M 11.765625 -4.714844 C 9.558594 -4.714844 8.582031 -5.820312 8.835938 -7.605469 L 9.726562 -13.976562 C 9.984375 -15.71875 11.257812 -16.820312 13.464844 -16.820312 C 15.675781 -16.820312 16.695312 -15.71875 16.441406 -13.976562 L 15.546875 -7.605469 C 15.292969 -5.820312 13.976562 -4.714844 11.765625 -4.714844 Z M 11.765625 -4.714844 "/></g></g></g><g fill="#3c3c3d" fill-opacity="1"><g transform="translate(214.295578, 257.584823)"><g><path d="M 15.335938 -4.714844 C 14.699219 -0.253906 16.992188 0.296875 18.691406 0.296875 C 20.898438 0.296875 22.21875 -0.59375 22.21875 -2.25 C 22.21875 -2.847656 21.960938 -3.101562 21.664062 -3.484375 C 21.15625 -4.121094 21.113281 -4.332031 21.238281 -5.226562 L 22.386719 -13.421875 C 23.109375 -18.394531 20.898438 -21.707031 15.546875 -21.707031 C 13.847656 -21.707031 11.765625 -21.15625 9.683594 -19.878906 C 9.175781 -20.644531 8.496094 -21.113281 7.605469 -21.113281 C 5.863281 -21.113281 4.375 -19.921875 4.375 -18.394531 C 4.375 -17.96875 4.503906 -17.628906 4.886719 -16.992188 C 5.011719 -16.738281 5.183594 -16.609375 4.96875 -15.207031 L 3.1875 -2.335938 C 2.972656 -0.890625 3.78125 0.253906 5.734375 0.253906 C 7.6875 0.253906 8.835938 -0.890625 9.046875 -2.335938 L 10.832031 -15.164062 C 10.875 -15.421875 10.875 -15.675781 10.875 -15.972656 C 12.277344 -16.566406 13.382812 -16.863281 14.273438 -16.863281 C 15.972656 -16.863281 16.820312 -15.546875 16.523438 -13.421875 Z M 15.335938 -4.714844 "/></g></g></g><g fill="#3c3c3d" fill-opacity="1"><g transform="translate(237.609431, 257.584823)"><g><path d="M 15.335938 -4.714844 C 14.699219 -0.253906 16.992188 0.296875 18.691406 0.296875 C 20.898438 0.296875 22.21875 -0.59375 22.21875 -2.25 C 22.21875 -2.847656 21.960938 -3.101562 21.664062 -3.484375 C 21.15625 -4.121094 21.113281 -4.332031 21.238281 -5.226562 L 22.386719 -13.421875 C 23.109375 -18.394531 20.898438 -21.707031 15.546875 -21.707031 C 13.847656 -21.707031 11.765625 -21.15625 9.683594 -19.878906 C 9.175781 -20.644531 8.496094 -21.113281 7.605469 -21.113281 C 5.863281 -21.113281 4.375 -19.921875 4.375 -18.394531 C 4.375 -17.96875 4.503906 -17.628906 4.886719 -16.992188 C 5.011719 -16.738281 5.183594 -16.609375 4.96875 -15.207031 L 3.1875 -2.335938 C 2.972656 -0.890625 3.78125 0.253906 5.734375 0.253906 C 7.6875 0.253906 8.835938 -0.890625 9.046875 -2.335938 L 10.832031 -15.164062 C 10.875 -15.421875 10.875 -15.675781 10.875 -15.972656 C 12.277344 -16.566406 13.382812 -16.863281 14.273438 -16.863281 C 15.972656 -16.863281 16.820312 -15.546875 16.523438 -13.421875 Z M 15.335938 -4.714844 "/></g></g></g><g fill="#3c3c3d" fill-opacity="1"><g transform="translate(260.923285, 257.584823)"><g><path d="M 12.191406 -8.113281 C 18.691406 -8.113281 21.453125 -11.003906 21.453125 -15.589844 C 21.453125 -19.285156 19.03125 -21.792969 14.019531 -21.792969 C 8.113281 -21.792969 4.503906 -18.519531 3.90625 -14.230469 L 2.929688 -7.136719 C 2.335938 -2.929688 5.097656 0.296875 10.703125 0.296875 C 13.550781 0.296875 19.414062 -0.507812 19.414062 -3.738281 C 19.414062 -4.628906 18.902344 -5.777344 17.078125 -5.777344 C 16.355469 -5.777344 15.972656 -5.605469 15.800781 -5.523438 C 14.359375 -4.925781 13.167969 -4.585938 11.808594 -4.585938 C 9.515625 -4.585938 8.539062 -5.523438 8.75 -6.964844 L 8.964844 -8.367188 C 10.152344 -8.199219 11.085938 -8.113281 12.191406 -8.113281 Z M 15.589844 -15.335938 C 15.589844 -13.167969 14.441406 -12.488281 12.617188 -12.488281 C 12.191406 -12.488281 10.917969 -12.53125 9.558594 -12.660156 L 9.8125 -14.484375 C 10.066406 -16.183594 11.300781 -17.246094 13.339844 -17.246094 C 14.824219 -17.246094 15.589844 -16.695312 15.589844 -15.335938 Z M 15.589844 -15.335938 "/></g></g></g><g fill="#3c3c3d" fill-opacity="1"><g transform="translate(281.51931, 257.584823)"><g><path d="M 3.015625 -7.816406 C 2.378906 -3.269531 4.628906 0.296875 10.621094 0.296875 C 13.296875 0.296875 18.480469 -0.382812 18.480469 -3.695312 C 18.480469 -4.585938 17.96875 -5.566406 16.058594 -5.566406 C 15.460938 -5.566406 15.164062 -5.480469 14.699219 -5.308594 C 13.804688 -4.96875 13 -4.585938 11.683594 -4.585938 C 9.34375 -4.585938 8.582031 -5.820312 8.878906 -7.816406 L 9.683594 -13.550781 C 9.984375 -15.546875 11.085938 -16.78125 13.421875 -16.78125 C 14.742188 -16.78125 15.335938 -16.398438 16.183594 -16.058594 C 16.738281 -15.84375 17.121094 -15.800781 17.542969 -15.800781 C 20.007812 -15.800781 20.519531 -17.246094 20.519531 -18.308594 C 20.519531 -21.113281 16.140625 -21.664062 13.761719 -21.664062 C 7.6875 -21.664062 4.460938 -18.097656 3.824219 -13.550781 Z M 3.015625 -7.816406 "/></g></g></g><g fill="#3c3c3d" fill-opacity="1"><g transform="translate(300.33177, 257.584823)"><g><path d="M 3.949219 -8.835938 C 3.144531 -3.058594 4.375 0.167969 10.960938 0.167969 C 13.296875 0.167969 15.460938 -0.210938 15.460938 -3.058594 C 15.460938 -4.332031 14.65625 -4.925781 12.277344 -4.925781 C 12.191406 -4.925781 11.9375 -4.886719 11.554688 -4.886719 C 9.515625 -4.886719 9.429688 -5.988281 9.855469 -9.132812 L 10.746094 -15.546875 L 13.890625 -15.546875 C 15.589844 -15.546875 17.078125 -16.738281 17.078125 -18.351562 C 17.078125 -19.625 16.058594 -20.601562 14.613281 -20.601562 L 11.46875 -20.601562 L 12.148438 -25.316406 C 12.363281 -26.71875 11.425781 -27.910156 9.558594 -27.910156 C 7.6875 -27.910156 6.5 -26.761719 6.285156 -25.316406 Z M 3.949219 -8.835938 "/></g></g></g><g fill="#3c3c3d" fill-opacity="1"><g transform="translate(315.662006, 257.584823)"><g><path d="M 13.210938 -27.65625 C 13.210938 -29.140625 12.023438 -30.332031 10.324219 -30.332031 C 8.285156 -30.332031 6.542969 -28.84375 6.542969 -27.058594 C 6.542969 -25.574219 7.730469 -24.382812 9.472656 -24.382812 C 11.511719 -24.382812 13.210938 -25.871094 13.210938 -27.65625 Z M 3.738281 -4.714844 C 3.101562 -0.253906 5.394531 0.296875 7.09375 0.296875 C 9.304688 0.296875 10.621094 -0.59375 10.621094 -2.25 C 10.621094 -2.847656 10.363281 -3.101562 10.066406 -3.484375 C 9.558594 -4.121094 9.558594 -4.332031 9.683594 -5.226562 L 11.640625 -19.074219 C 11.851562 -20.476562 10.746094 -21.664062 9.089844 -21.664062 C 7.433594 -21.664062 5.988281 -20.476562 5.777344 -19.074219 Z M 3.738281 -4.714844 "/></g></g></g><g fill="#3c3c3d" fill-opacity="1"><g transform="translate(327.764842, 257.584823)"><g><path d="M 11.085938 0.296875 C 17.121094 0.296875 20.773438 -3.144531 21.410156 -7.605469 L 22.300781 -13.933594 C 22.898438 -18.394531 20.21875 -21.835938 14.1875 -21.835938 C 8.15625 -21.835938 4.460938 -18.394531 3.867188 -13.933594 L 2.972656 -7.605469 C 2.335938 -3.144531 5.054688 0.296875 11.085938 0.296875 Z M 11.765625 -4.714844 C 9.558594 -4.714844 8.582031 -5.820312 8.835938 -7.605469 L 9.726562 -13.976562 C 9.984375 -15.71875 11.257812 -16.820312 13.464844 -16.820312 C 15.675781 -16.820312 16.695312 -15.71875 16.441406 -13.976562 L 15.546875 -7.605469 C 15.292969 -5.820312 13.976562 -4.714844 11.765625 -4.714844 Z M 11.765625 -4.714844 "/></g></g></g><g fill="#3c3c3d" fill-opacity="1"><g transform="translate(350.017057, 257.584823)"><g><path d="M 15.335938 -4.714844 C 14.699219 -0.253906 16.992188 0.296875 18.691406 0.296875 C 20.898438 0.296875 22.21875 -0.59375 22.21875 -2.25 C 22.21875 -2.847656 21.960938 -3.101562 21.664062 -3.484375 C 21.15625 -4.121094 21.113281 -4.332031 21.238281 -5.226562 L 22.386719 -13.421875 C 23.109375 -18.394531 20.898438 -21.707031 15.546875 -21.707031 C 13.847656 -21.707031 11.765625 -21.15625 9.683594 -19.878906 C 9.175781 -20.644531 8.496094 -21.113281 7.605469 -21.113281 C 5.863281 -21.113281 4.375 -19.921875 4.375 -18.394531 C 4.375 -17.96875 4.503906 -17.628906 4.886719 -16.992188 C 5.011719 -16.738281 5.183594 -16.609375 4.96875 -15.207031 L 3.1875 -2.335938 C 2.972656 -0.890625 3.78125 0.253906 5.734375 0.253906 C 7.6875 0.253906 8.835938 -0.890625 9.046875 -2.335938 L 10.832031 -15.164062 C 10.875 -15.421875 10.875 -15.675781 10.875 -15.972656 C 12.277344 -16.566406 13.382812 -16.863281 14.273438 -16.863281 C 15.972656 -16.863281 16.820312 -15.546875 16.523438 -13.421875 Z M 15.335938 -4.714844 "/></g></g></g></svg>