<?xml version="1.0" encoding="utf-8"?>
<!-- Generator: Adobe Illustrator 27.2.0, SVG Export Plug-In . SVG Version: 6.00 Build 0)  -->
<svg version="1.1" id="Layer_1" xmlns="http://www.w3.org/2000/svg" xmlns:xlink="http://www.w3.org/1999/xlink" x="0px" y="0px"
	 viewBox="0 0 1532.67 1070.41" style="enable-background:new 0 0 1532.67 1070.41;" xml:space="preserve">
<style type="text/css">
	.st0{fill:#FEE589;}
	.st1{fill:#9A1420;}
	.st2{fill:#EF4136;}
	.st3{fill:#F15A29;}
	.st4{fill:#F7941D;}
	.st5{fill:url(#SVGID_1_);}
	.st6{fill:url(#SVGID_00000101782550645453186170000014543007264971091613_);}
	.st7{fill:#5B83C3;}
	.st8{fill:#5759A7;}
	.st9{fill:url(#SVGID_00000160179764136913587730000015208194662332251016_);}
	.st10{fill:url(#SVGID_00000036951832396229903480000014119291037958703786_);}
	.st11{fill:#ED1C24;}
	.st12{fill:#2B3990;}
	.st13{fill:url(#SVGID_00000082340108935267748870000018390826076436598452_);}
	.st14{fill:url(#SVGID_00000054265958218088594140000007040127226881978553_);}
	.st15{fill:url(#SVGID_00000012431580580658035740000001227005303962157205_);}
	.st16{fill:url(#SVGID_00000093879338770672773460000016509031207667348149_);}
	.st17{fill:#27AAE1;}
</style>
<linearGradient id="SVGID_1_" gradientUnits="userSpaceOnUse" x1="1122.6447" y1="161.936" x2="1123.2443" y2="161.936">
	<stop  offset="0" style="stop-color:#FFF33B"/>
	<stop  offset="0.0595" style="stop-color:#FFE029"/>
	<stop  offset="0.1303" style="stop-color:#FFD217"/>
	<stop  offset="0.2032" style="stop-color:#FEC90E"/>
	<stop  offset="0.2809" style="stop-color:#FDC70C"/>
	<stop  offset="0.6685" style="stop-color:#F3903F"/>
	<stop  offset="0.8876" style="stop-color:#ED683C"/>
	<stop  offset="1" style="stop-color:#E93E3A"/>
</linearGradient>
<path class="st5" d="M1123.24,162.11c-0.2-0.12-0.4-0.23-0.6-0.35C1122.87,161.89,1123.07,162.01,1123.24,162.11z"/>
<linearGradient id="SVGID_00000042713069362061162820000011094524744413099700_" gradientUnits="userSpaceOnUse" x1="1031.9001" y1="107.609" x2="1033.0502" y2="107.609">
	<stop  offset="0" style="stop-color:#FFF33B"/>
	<stop  offset="0.0595" style="stop-color:#FFE029"/>
	<stop  offset="0.1303" style="stop-color:#FFD217"/>
	<stop  offset="0.2032" style="stop-color:#FEC90E"/>
	<stop  offset="0.2809" style="stop-color:#FDC70C"/>
	<stop  offset="0.6685" style="stop-color:#F3903F"/>
	<stop  offset="0.8876" style="stop-color:#ED683C"/>
	<stop  offset="1" style="stop-color:#E93E3A"/>
</linearGradient>
<path style="fill:url(#SVGID_00000042713069362061162820000011094524744413099700_);" d="M1031.9,107.32
	c0.43,0.2,0.81,0.39,1.15,0.58C1032.72,107.72,1032.33,107.52,1031.9,107.32z"/>
<path class="st7" d="M1131.53,163.44c-0.37-0.27-0.74-0.53-1.11-0.79C1130.77,162.88,1131.14,163.15,1131.53,163.44z"/>
<path class="st8" d="M1109.22,158.72c-3.88,0.74-6.77,2.09-8.69,3c-4.38,2.07-7.25,4.38-10.13,6.71c-3.04,2.44-5.37,4.74-7,6.47
	c3.22-3.89,10.5-11.52,21.21-15.01C1106.21,159.37,1107.74,158.98,1109.22,158.72z"/>
<path class="st8" d="M1117.35,158.27c-0.1,0-0.19-0.01-0.29-0.01c-0.27-0.03-0.55-0.04-0.83-0.05c-1.02-0.04-2.09-0.03-3.2,0.03
	C1114.15,158.16,1115.62,158.12,1117.35,158.27z"/>
<path class="st8" d="M1117.85,158.32c0.35,0.03,0.69,0.07,1.02,0.12c-0.36-0.06-0.69-0.08-1.03-0.12
	C1117.84,158.32,1117.85,158.32,1117.85,158.32z"/>
<path class="st8" d="M1128.86,161.69c-0.01-0.01-0.02-0.01-0.03-0.01c-0.39-0.14-4.83-2.46-9.95-3.24c0.31,0.03,0.61,0.08,0.9,0.13
	c0.22,0.03,0.43,0.07,0.64,0.11c0.2,0.03,0.39,0.07,0.58,0.11c0.26,0.06,0.52,0.11,0.77,0.17c0.31,0.07,0.61,0.15,0.9,0.23
	c0.57,0.15,1.11,0.32,1.62,0.48c1.44,0.49,2.64,1.02,3.59,1.5c0.18,0.09,0.35,0.18,0.52,0.27c0.09,0.05,0.19,0.1,0.28,0.15
	c0.05,0.03,0.1,0.06,0.15,0.08C1128.85,161.68,1128.86,161.69,1128.86,161.69z"/>
<linearGradient id="SVGID_00000167364562818690866940000005586092161037144734_" gradientUnits="userSpaceOnUse" x1="1083.3951" y1="166.8061" x2="1109.2152" y2="166.8061">
	<stop  offset="0" style="stop-color:#CB72AE"/>
	<stop  offset="0.0122" style="stop-color:#C46FAD"/>
	<stop  offset="0.0633" style="stop-color:#AA65A9"/>
	<stop  offset="0.1154" style="stop-color:#975EA6"/>
	<stop  offset="0.1685" style="stop-color:#8959A5"/>
	<stop  offset="0.2229" style="stop-color:#8157A4"/>
	<stop  offset="0.2809" style="stop-color:#7E56A3"/>
	<stop  offset="0.6685" style="stop-color:#5F67AF"/>
	<stop  offset="0.8876" style="stop-color:#688EC9"/>
	<stop  offset="1" style="stop-color:#73CDDA"/>
</linearGradient>
<path style="fill:url(#SVGID_00000167364562818690866940000005586092161037144734_);" d="M1109.22,158.72
	c-3.88,0.74-6.77,2.09-8.69,3c-4.38,2.07-7.25,4.38-10.13,6.71c-3.04,2.44-5.37,4.74-7,6.47c3.22-3.89,10.5-11.52,21.21-15.01
	C1106.21,159.37,1107.74,158.98,1109.22,158.72z"/>
<linearGradient id="SVGID_00000181049604627142300850000011105817527495499667_" gradientUnits="userSpaceOnUse" x1="1118.8751" y1="160.0561" x2="1128.8251" y2="160.0561">
	<stop  offset="0" style="stop-color:#CB72AE"/>
	<stop  offset="0.0122" style="stop-color:#C46FAD"/>
	<stop  offset="0.0633" style="stop-color:#AA65A9"/>
	<stop  offset="0.1154" style="stop-color:#975EA6"/>
	<stop  offset="0.1685" style="stop-color:#8959A5"/>
	<stop  offset="0.2229" style="stop-color:#8157A4"/>
	<stop  offset="0.2809" style="stop-color:#7E56A3"/>
	<stop  offset="0.6685" style="stop-color:#5F67AF"/>
	<stop  offset="0.8876" style="stop-color:#688EC9"/>
	<stop  offset="1" style="stop-color:#73CDDA"/>
</linearGradient>
<path style="fill:url(#SVGID_00000181049604627142300850000011105817527495499667_);" d="M1128.83,161.67v0.01
	c-0.39-0.14-4.83-2.46-9.95-3.24c0.31,0.03,0.61,0.08,0.9,0.13c0.22,0.03,0.43,0.07,0.64,0.11c0.2,0.03,0.39,0.07,0.58,0.11
	c0.26,0.06,0.52,0.11,0.77,0.17c0.31,0.07,0.61,0.15,0.9,0.23c0.57,0.15,1.11,0.32,1.62,0.48c1.44,0.49,2.64,1.02,3.59,1.5
	c0.18,0.09,0.35,0.18,0.52,0.27c0.09,0.05,0.19,0.1,0.28,0.15C1128.73,161.62,1128.78,161.65,1128.83,161.67z"/>
<path class="st7" d="M398.72,162.7c-0.37,0.26-0.74,0.52-1.11,0.79C398,163.2,398.37,162.93,398.72,162.7z"/>
<path class="st8" d="M410.26,158.49c-4.94,0.75-9.25,2.93-9.9,3.21c0.03-0.02,0.07-0.04,0.1-0.06c0.02-0.01,0.04-0.02,0.06-0.03
	c0.01-0.01,0.01-0.01,0.02-0.01c0.05-0.04,0.12-0.07,0.2-0.11c0.17-0.09,0.34-0.18,0.52-0.27c0.95-0.48,2.15-1.01,3.59-1.5
	c0.51-0.16,1.05-0.33,1.62-0.48c0.29-0.08,0.59-0.16,0.9-0.23c0.25-0.06,0.51-0.11,0.77-0.17c0.19-0.04,0.38-0.08,0.58-0.11
	c0.21-0.04,0.42-0.08,0.64-0.11C409.65,158.57,409.95,158.52,410.26,158.49z"/>
<path class="st8" d="M416.1,158.29c-1.11-0.06-2.17-0.07-3.19-0.03c-0.28,0.01-0.56,0.02-0.83,0.05c-0.27,0.01-0.54,0.03-0.8,0.06
	c-0.35,0.03-0.69,0.07-1.02,0.12C412.67,158.11,414.67,158.17,416.1,158.29z"/>
<path class="st8" d="M445.74,174.95c-1.62-1.73-3.96-4.03-6.99-6.48c-2.89-2.32-5.76-4.63-10.14-6.7c-1.92-0.91-4.81-2.26-8.69-3
	c1.48,0.26,3.01,0.65,4.61,1.17C435.24,163.43,442.52,171.06,445.74,174.95z"/>
<g>
	<path class="st11" d="M1240.67,180.5c-0.35-0.28-0.7-0.55-1.02-0.78c-0.31-0.23-0.62-0.44-0.93-0.65
		c-2.77-1.78-11.96-6.81-24.87-2.34c-10.7,3.69-17.97,11.84-21.17,15.97c-0.61,0.78-1.06,1.42-1.37,1.86
		c-13.49,19.18-28.61,40.72-44.84,63.91V157.16c0-11.77-5.07-22.23-12.91-28.8c-0.08-0.09-0.17-0.16-0.26-0.23
		c-0.37-0.29-0.74-0.59-1.11-0.88c-0.02-0.01-0.05-0.03-0.07-0.05c-0.16-0.12-0.33-0.23-0.49-0.36c-0.03-0.02-0.06-0.03-0.09-0.05
		c-0.08-0.07-0.16-0.13-0.24-0.17c-0.01-0.01-0.02-0.02-0.03-0.02c-0.1-0.07-0.2-0.13-0.3-0.21c-0.11-0.06-0.23-0.13-0.34-0.21
		c-0.01-0.01-0.02-0.01-0.03-0.01c-0.39-0.16-4.83-2.73-9.95-3.6c-0.33-0.06-0.67-0.11-1.02-0.14c-0.26-0.03-0.53-0.05-0.8-0.06
		c-0.27-0.03-0.55-0.06-0.83-0.07c-1.02-0.04-2.09-0.03-3.2,0.05c-0.33,0.03-0.67,0.05-1.02,0.09c-0.32,0.02-0.63,0.07-0.93,0.12
		c-0.6,0.07-1.22,0.18-1.86,0.32c-3.88,0.82-6.77,2.33-8.69,3.33c-4.38,2.32-7.25,4.89-10.13,7.49c-3.04,2.71-5.37,5.28-7,7.2
		c-0.61,0.82-1.08,1.49-1.39,1.97c-13.49,19.99-28.58,42.44-44.8,66.61v-107.7c0-12.26-5.06-23.14-12.89-30
		c-0.26-0.23-0.51-0.46-0.75-0.66c-0.45-0.39-0.92-0.75-1.39-1.1c-0.12-0.09-0.24-0.16-0.36-0.24l-0.36-0.24
		c-0.04-0.03-0.08-0.05-0.12-0.08c-0.09-0.06-0.19-0.12-0.29-0.19c-0.33-0.21-0.72-0.44-1.15-0.67c-0.01-0.02-0.03-0.03-0.05-0.04
		c-0.18-0.09-0.38-0.2-0.58-0.3c-0.05-0.04-0.1-0.06-0.15-0.08c-0.18-0.1-0.36-0.19-0.55-0.27c-0.36-0.17-0.73-0.34-1.12-0.51
		c-0.69-0.29-1.44-0.57-2.25-0.84c-0.25-0.07-0.51-0.15-0.78-0.22c-0.05-0.02-0.11-0.03-0.17-0.04c-0.31-0.1-0.64-0.18-0.97-0.26
		c-0.41-0.09-0.84-0.18-1.29-0.25c-0.31-0.07-0.63-0.12-0.95-0.17c-0.28-0.03-0.56-0.07-0.85-0.1c-0.15-0.02-0.3-0.04-0.45-0.05
		c-0.36-0.03-0.72-0.06-1.09-0.07c-0.41-0.02-0.83-0.03-1.26-0.03c-3.05,0-6.47,0.52-10.21,1.91c-10.79,4.02-18.06,12.95-21.2,17.38
		c0,0.01-0.01,0.02-0.01,0.02c-0.54,0.77-0.96,1.4-1.25,1.85C922,170.66,841.02,296.77,766.33,414.02
		C691.64,296.79,610.67,170.69,556.19,86.57c-0.29-0.44-0.71-1.08-1.25-1.84c0,0-0.01-0.02-0.01-0.03
		c-3.14-4.42-10.41-13.35-21.2-17.37c-3.74-1.39-7.16-1.92-10.21-1.92c-0.43,0-0.85,0.02-1.26,0.04c-0.37,0.01-0.73,0.03-1.09,0.07
		c-0.15,0.01-0.3,0.02-0.45,0.05c-0.29,0.03-0.57,0.06-0.85,0.1c-0.32,0.05-0.64,0.09-0.95,0.16c-0.45,0.07-0.88,0.16-1.29,0.26
		c-0.33,0.08-0.66,0.16-0.97,0.25c-0.06,0.01-0.12,0.03-0.17,0.05c-0.27,0.07-0.53,0.15-0.78,0.22c-0.81,0.27-1.56,0.55-2.25,0.84
		c-0.39,0.17-0.76,0.33-1.12,0.51c-0.19,0.08-0.37,0.17-0.55,0.26c-0.05,0.03-0.1,0.05-0.15,0.09c-0.2,0.1-0.4,0.2-0.58,0.3
		c-0.02,0.01-0.04,0.02-0.05,0.03c-0.43,0.23-0.82,0.47-1.15,0.68c-0.1,0.07-0.2,0.12-0.29,0.18c-0.04,0.04-0.08,0.06-0.12,0.08
		c-0.12,0.08-0.24,0.17-0.36,0.25c-0.12,0.08-0.24,0.15-0.36,0.24c-0.47,0.35-0.94,0.71-1.39,1.09c-0.24,0.21-0.49,0.43-0.75,0.66
		c-7.83,6.87-12.89,17.75-12.89,30.01v107.68c-16.22-24.16-31.32-46.6-44.8-66.6c-0.31-0.47-0.78-1.14-1.39-1.95
		c-1.62-1.93-3.96-4.5-6.99-7.23c-2.89-2.58-5.76-5.15-10.14-7.46c-1.92-1.01-4.81-2.51-8.69-3.34c-0.64-0.14-1.26-0.24-1.86-0.32
		c-0.3-0.05-0.61-0.09-0.93-0.12c-0.35-0.04-0.69-0.06-1.03-0.09c-1.11-0.07-2.17-0.09-3.19-0.04c-0.28,0.02-0.56,0.03-0.83,0.06
		c-0.27,0.01-0.54,0.03-0.8,0.06c-0.35,0.04-0.69,0.08-1.02,0.14c-5.1,0.86-9.53,3.41-9.95,3.59c-0.01,0.02-0.02,0.02-0.03,0.03
		c-0.11,0.06-0.23,0.14-0.34,0.21c-0.1,0.06-0.2,0.14-0.3,0.2c-0.01,0-0.02,0.01-0.03,0.02c-0.08,0.04-0.16,0.11-0.24,0.17
		c-0.03,0.02-0.06,0.03-0.09,0.05c-0.16,0.13-0.33,0.25-0.49,0.36c-0.02,0.02-0.05,0.05-0.07,0.06c-0.37,0.28-0.74,0.58-1.11,0.88
		c-0.09,0.06-0.18,0.13-0.26,0.22c-7.84,6.57-12.91,17.03-12.91,28.81v101.29c-16.23-23.2-31.35-44.73-44.84-63.91
		c-0.31-0.43-0.76-1.08-1.37-1.86c-3.2-4.14-10.47-12.27-21.17-15.97c-12.91-4.46-22.1,0.57-24.87,2.35
		c-0.31,0.21-0.62,0.42-0.93,0.64c-0.32,0.24-0.67,0.5-1.02,0.79c-8.03,6.3-13.25,16.43-13.25,27.9v549.46
		c0,19.11,14.5,34.6,32.38,34.6c17.89,0,32.39-15.49,32.39-34.6V307.54c14.23,20.49,28.45,40.99,42.68,61.48v361.06
		c0,19.94,14.5,36.08,32.38,36.08c17.89,0,32.39-16.14,32.39-36.08v-469.5c14.24,21.4,28.48,42.78,42.72,64.18v374.28
		c0,20.76,14.5,37.6,32.39,37.6c17.88,0,32.38-16.84,32.38-37.6V209.47c56.45,88.33,112.91,176.68,169.37,265.03
		c12.82,20.07,25.65,40.15,38.49,60.22c12.83-20.07,25.66-40.15,38.48-60.22c56.47-88.36,112.94-176.72,169.4-265.08v489.57
		c0,20.77,14.5,37.61,32.38,37.61c17.89,0,32.39-16.84,32.39-37.61V324.73c14.24-21.4,28.48-42.79,42.72-64.19v469.54
		c0,19.93,14.5,36.08,32.39,36.08c17.88,0,32.38-16.15,32.38-36.08v-361.1c14.23-20.49,28.45-40.99,42.68-61.48v450.41
		c0,19.11,14.5,34.6,32.39,34.6c17.88,0,32.38-15.49,32.38-34.6V208.4C1253.92,196.94,1248.7,186.8,1240.67,180.5z M397.61,163.49
		c0.39-0.29,0.76-0.56,1.11-0.79C398.35,162.96,397.98,163.22,397.61,163.49z M412.91,158.26c-0.28,0.01-0.56,0.02-0.83,0.05
		c-0.27,0.01-0.54,0.03-0.8,0.06c-0.35,0.03-0.69,0.07-1.02,0.12c-4.94,0.75-9.25,2.93-9.9,3.21c0.03-0.02,0.07-0.04,0.1-0.06
		c0.02-0.01,0.04-0.02,0.06-0.03c0.01-0.01,0.01-0.01,0.02-0.01c0.05-0.04,0.12-0.07,0.2-0.11c0.17-0.09,0.34-0.18,0.52-0.27
		c0.95-0.48,2.15-1.01,3.59-1.5c0.51-0.16,1.05-0.33,1.62-0.48c0.29-0.08,0.59-0.16,0.9-0.23c0.25-0.06,0.51-0.11,0.77-0.17
		c0.19-0.04,0.38-0.08,0.58-0.11c0.21-0.04,0.42-0.08,0.64-0.11c0.29-0.05,0.59-0.1,0.9-0.13c2.41-0.38,4.41-0.32,5.84-0.2
		C414.99,158.23,413.93,158.22,412.91,158.26z M438.75,168.47c-2.89-2.32-5.76-4.63-10.14-6.7c-1.92-0.91-4.81-2.26-8.69-3
		c1.48,0.26,3.01,0.65,4.61,1.17c10.71,3.49,17.99,11.12,21.21,15.01C444.12,173.22,441.78,170.92,438.75,168.47z M1100.53,161.72
		c-4.38,2.07-7.25,4.38-10.13,6.71c-3.04,2.44-5.37,4.74-7,6.47c3.22-3.89,10.5-11.52,21.21-15.01c1.6-0.52,3.13-0.91,4.61-1.17
		C1105.34,159.46,1102.45,160.81,1100.53,161.72z M1117.06,158.26c-0.27-0.03-0.55-0.04-0.83-0.05c-1.02-0.04-2.09-0.03-3.2,0.03
		c1.12-0.08,2.59-0.12,4.32,0.03C1117.25,158.27,1117.16,158.26,1117.06,158.26z M1128.83,161.68c-0.39-0.14-4.83-2.46-9.95-3.24
		c0.31,0.03,0.61,0.08,0.9,0.13c0.22,0.03,0.43,0.07,0.64,0.11c0.2,0.03,0.39,0.07,0.58,0.11c0.26,0.06,0.52,0.11,0.77,0.17
		c0.31,0.07,0.61,0.15,0.9,0.23c0.57,0.15,1.11,0.32,1.62,0.48c1.44,0.49,2.64,1.02,3.59,1.5c0.18,0.09,0.35,0.18,0.52,0.27
		c0.09,0.05,0.19,0.1,0.28,0.15c0.05,0.03,0.1,0.06,0.15,0.08c0.02,0.01,0.03,0.02,0.03,0.02
		C1128.85,161.68,1128.84,161.68,1128.83,161.68z M1130.42,162.65c0.35,0.23,0.72,0.5,1.11,0.79
		C1131.16,163.17,1130.79,162.91,1130.42,162.65z"/>
	<path class="st11" d="M398.72,162.7c-0.37,0.26-0.74,0.52-1.11,0.79C398,163.2,398.37,162.93,398.72,162.7z"/>
	<path class="st11" d="M410.26,158.49c-4.94,0.75-9.25,2.93-9.9,3.21c0.03-0.02,0.07-0.04,0.1-0.06c0.02-0.01,0.04-0.02,0.06-0.03
		c0.01-0.01,0.01-0.01,0.02-0.01c0.05-0.04,0.12-0.07,0.2-0.11c0.17-0.09,0.34-0.18,0.52-0.27c0.95-0.48,2.15-1.01,3.59-1.5
		c0.51-0.16,1.05-0.33,1.62-0.48c0.29-0.08,0.59-0.16,0.9-0.23c0.25-0.06,0.51-0.11,0.77-0.17c0.19-0.04,0.38-0.08,0.58-0.11
		c0.21-0.04,0.42-0.08,0.64-0.11C409.65,158.57,409.95,158.52,410.26,158.49z"/>
	<path class="st11" d="M416.1,158.29c-1.11-0.06-2.17-0.07-3.19-0.03c-0.28,0.01-0.56,0.02-0.83,0.05c-0.27,0.01-0.54,0.03-0.8,0.06
		c-0.35,0.03-0.69,0.07-1.02,0.12C412.67,158.11,414.67,158.17,416.1,158.29z"/>
	<path class="st11" d="M445.74,174.95c-1.62-1.73-3.96-4.03-6.99-6.48c-2.89-2.32-5.76-4.63-10.14-6.7c-1.92-0.91-4.81-2.26-8.69-3
		c1.48,0.26,3.01,0.65,4.61,1.17C435.24,163.43,442.52,171.06,445.74,174.95z"/>
	<path class="st11" d="M1104.61,159.89c1.6-0.52,3.13-0.91,4.61-1.17c-3.88,0.74-6.77,2.09-8.69,3c-4.38,2.07-7.25,4.38-10.13,6.71
		c-3.04,2.44-5.37,4.74-7,6.47C1086.62,171.01,1093.9,163.38,1104.61,159.89z"/>
	<path class="st11" d="M1117.35,158.27c-0.1,0-0.19-0.01-0.29-0.01c-0.27-0.03-0.55-0.04-0.83-0.05c-1.02-0.04-2.09-0.03-3.2,0.03
		C1114.15,158.16,1115.62,158.12,1117.35,158.27z"/>
	<path class="st11" d="M1128.83,161.67c0.02,0.01,0.03,0.02,0.03,0.02c-0.01-0.01-0.02-0.01-0.03-0.01
		c-0.39-0.14-4.83-2.46-9.95-3.24c0.31,0.03,0.61,0.08,0.9,0.13c0.22,0.03,0.43,0.07,0.64,0.11c0.2,0.03,0.39,0.07,0.58,0.11
		c0.26,0.06,0.52,0.11,0.77,0.17c0.31,0.07,0.61,0.15,0.9,0.23c0.57,0.15,1.11,0.32,1.62,0.48c1.44,0.49,2.64,1.02,3.59,1.5
		c0.18,0.09,0.35,0.18,0.52,0.27c0.09,0.05,0.19,0.1,0.28,0.15C1128.73,161.62,1128.78,161.65,1128.83,161.67z"/>
	<path class="st11" d="M1131.53,163.44c-0.37-0.27-0.74-0.53-1.11-0.79C1130.77,162.88,1131.14,163.15,1131.53,163.44z"/>
</g>
<path class="st11" d="M764.53,712.51l-411.22,91c-9.74,2.16-8.18,16.5,1.8,16.5h822.44c9.98,0,11.55-14.34,1.8-16.5l-411.22-91
	C766.95,712.25,765.72,712.25,764.53,712.51z"/>
</svg>
